<svg width="353" height="393" viewBox="0 0 353 393" fill="none" xmlns="http://www.w3.org/2000/svg">
<path d="M171 0L0 189L19.5 210.5L171 39V0Z" fill="white" fill-opacity="0.05"/>
<path d="M171 64L28.5 222L48 244L171 103V64Z" fill="white" fill-opacity="0.05"/>
<path d="M171 129L57 255.5L74.5 274.5L171 168V129Z" fill="white" fill-opacity="0.05"/>
<path d="M171 194L85 288L103.5 309L171 233V194Z" fill="white" fill-opacity="0.05"/>
<path d="M182 0L353 189L333.5 210.5L182 39V0Z" fill="white" fill-opacity="0.05"/>
<path d="M182 64L324.5 222L305 244L182 103V64Z" fill="white" fill-opacity="0.05"/>
<path d="M182 129L296 255.5L278.5 274.5L182 168V129Z" fill="white" fill-opacity="0.05"/>
<path d="M182 194L268 288L249.5 309L182 233V194Z" fill="white" fill-opacity="0.05"/>
<path d="M112.783 323.279L177 250.5L238.77 323.279L177 393L112.783 323.279Z" fill="white" fill-opacity="0.05"/>
</svg>
