<svg width="105" height="104" viewBox="0 0 105 104" fill="none" xmlns="http://www.w3.org/2000/svg">
<path fill-rule="evenodd" clip-rule="evenodd" d="M6 3C6 4.65685 4.65685 6 3 6V98C4.65685 98 6 99.3431 6 101H98C98 99.3431 99.3431 98 101 98V5.82929C99.8348 5.41746 99 4.30622 99 3H6ZM102 98.1707V6C103.657 6 105 4.65685 105 3C105 1.34315 103.657 0 102 0C100.694 0 99.5825 0.834808 99.1707 2H5.82929C5.41746 0.834808 4.30622 0 3 0C1.34315 0 0 1.34315 0 3C0 4.30622 0.834808 5.41746 2 5.82929V98.1707C0.834808 98.5825 0 99.6938 0 101C0 102.657 1.34315 104 3 104C4.30622 104 5.41746 103.165 5.82929 102H98.1707C98.5825 103.165 99.6938 104 101 104C102.657 104 104 102.657 104 101C104 99.6938 103.165 98.5825 102 98.1707Z" fill="#211E28" fill-opacity="0.5"/>
</svg>
