<svg width="105" height="104" viewBox="0 0 105 104" fill="none" xmlns="http://www.w3.org/2000/svg">
<path fill-rule="evenodd" clip-rule="evenodd" d="M0 2.75C0 4.00878 0.845748 5.07002 2 5.39648V98.1035C0.845748 98.43 0 99.4912 0 100.75C0 102.269 1.23122 103.5 2.75 103.5C3.81867 103.5 4.74497 102.89 5.20015 102H99.2999C99.755 102.89 100.681 103.5 101.75 103.5C103.269 103.5 104.5 102.269 104.5 100.75C104.5 99.3155 103.402 98.1375 102 98.0112V5.48879C103.402 5.36248 104.5 4.18451 104.5 2.75C104.5 1.23122 103.269 0 101.75 0C100.491 0 99.43 0.845748 99.1035 2H5.39648C5.07002 0.845748 4.00878 0 2.75 0C1.23122 0 0 1.23122 0 2.75ZM101 98.1035V5.39648C99.923 5.09188 99.1146 4.14758 99.0112 3H5.48879C5.3699 4.31928 4.31928 5.3699 3 5.48879V98.0112C4.40163 98.1375 5.5 99.3155 5.5 100.75C5.5 100.834 5.49621 100.918 5.48879 101H99.0112C99.0038 100.918 99 100.834 99 100.75C99 99.4912 99.8457 98.43 101 98.1035Z" fill="#291C44"/>
</svg>
