<svg width="218" height="508" viewBox="0 0 218 508" fill="none" xmlns="http://www.w3.org/2000/svg">
<path d="M91.5 0C91.5 26 114 63 138.5 103.5L202 205C210.833 220.167 223.2 261.2 202 304C180.8 346.8 149.5 395.833 136.5 415C121 437.853 91.4 484.2 91 507" stroke="#A57FE3" stroke-opacity="0.18" stroke-width="8"/>
<path d="M60.5 0C60.5 26 83 63 107.5 103.5L171 205C179.833 220.167 192.2 261.2 171 304C149.8 346.8 118.5 395.833 105.5 415C90 437.853 60.4 484.2 60 507" stroke="#A57FE3" stroke-opacity="0.18" stroke-width="8"/>
<path d="M29.5 0C29.5 26 52 63 76.5 103.5L140 205C148.833 220.167 161.2 261.2 140 304C118.8 346.8 87.5 395.833 74.5 415C59 437.853 29.4 484.2 29 507" stroke="#A57FE3" stroke-opacity="0.18" stroke-width="8"/>
<path d="M127.206 0C127.206 26 104.706 63 80.2056 103.5L16.7056 205C7.87223 220.167 -4.49443 261.2 16.7056 304C37.9056 346.8 69.2056 395.833 82.2056 415C97.7056 437.853 127.306 484.2 127.706 507" stroke="#A57FE3" stroke-opacity="0.18" stroke-width="8"/>
<path d="M158.206 0C158.206 26 135.706 63 111.206 103.5L47.7056 205C38.8722 220.167 26.5056 261.2 47.7056 304C68.9056 346.8 100.206 395.833 113.206 415C128.706 437.853 158.306 484.2 158.706 507" stroke="#A57FE3" stroke-opacity="0.18" stroke-width="8"/>
<path d="M189.206 0C189.206 26 166.706 63 142.206 103.5L78.7056 205C69.8722 220.167 57.5056 261.2 78.7056 304C99.9056 346.8 131.206 395.833 144.206 415C159.706 437.853 189.306 484.2 189.706 507" stroke="#A57FE3" stroke-opacity="0.18" stroke-width="8"/>
</svg>
