<svg width="19" height="13" viewBox="0 0 19 13" fill="none" xmlns="http://www.w3.org/2000/svg">
<path d="M3.83333 12C3.83333 10.9875 5.10186 10.1667 6.66667 10.1667C8.23147 10.1667 9.5 10.9875 9.5 12M15.1667 8.33333H11.3889M15.1667 5.58333H12.3333M8.55556 5.58333C8.55556 6.59586 7.70987 7.41667 6.66667 7.41667C5.62346 7.41667 4.77778 6.59586 4.77778 5.58333C4.77778 4.57081 5.62346 3.75 6.66667 3.75C7.70987 3.75 8.55556 4.57081 8.55556 5.58333ZM1.94444 1H17.0556C17.5772 1 18 1.41041 18 1.91667V11.0833C18 11.5896 17.5772 12 17.0556 12H1.94444C1.42284 12 1 11.5896 1 11.0833V1.91667C1 1.41041 1.42284 1 1.94444 1Z" stroke="white" stroke-width="1.5" stroke-linecap="round" stroke-linejoin="round"/>
</svg>
