<svg width="21" height="21" viewBox="0 0 21 21" fill="none" xmlns="http://www.w3.org/2000/svg">
<path d="M14.0357 10.5L15.8035 12.2678C16.7798 13.2441 18.3627 13.2441 19.339 12.2678C20.3153 11.2915 20.3153 9.70854 19.339 8.73223C18.3627 7.75592 16.7798 7.75592 15.8035 8.73223L14.0357 10.5ZM14.0357 10.5L10.5002 6.96447M14.0357 10.5L10.5002 14.0355M10.5002 14.0355L12.2679 15.8033C13.2442 16.7796 13.2442 18.3625 12.2679 19.3388C11.2916 20.3151 9.7087 20.3151 8.73239 19.3388C7.75608 18.3625 7.75608 16.7796 8.73239 15.8033L10.5002 14.0355ZM10.5002 14.0355L6.96462 10.5M6.96462 10.5L10.5002 6.96447M6.96462 10.5L5.19686 8.73223C4.22054 7.75592 2.63763 7.75592 1.66132 8.73223C0.685011 9.70854 0.685011 11.2915 1.66132 12.2678C2.63763 13.2441 4.22054 13.2441 5.19686 12.2678L6.96462 10.5ZM10.5002 6.96447L8.73239 5.1967C7.75608 4.22039 7.75608 2.63748 8.73239 1.66117C9.7087 0.684855 11.2916 0.684855 12.2679 1.66117C13.2442 2.63748 13.2442 4.22039 12.2679 5.1967L10.5002 6.96447Z" stroke="white" stroke-width="1.5" stroke-linecap="round" stroke-linejoin="round"/>
</svg>
