<svg width="18" height="18" viewBox="0 0 18 18" fill="none" xmlns="http://www.w3.org/2000/svg">
<path d="M13.6369 15.5176C12.4976 14.2452 10.8422 13.4444 8.99986 13.4444C7.1575 13.4444 5.50215 14.2452 4.36285 15.5176M17 9C17 13.4183 13.4183 17 9 17C4.58172 17 1 13.4183 1 9C1 4.58172 4.58172 1 9 1C13.4183 1 17 4.58172 17 9ZM11.6667 8.11111C11.6667 9.58387 10.4728 10.7778 9 10.7778C7.52724 10.7778 6.33333 9.58387 6.33333 8.11111C6.33333 6.63835 7.52724 5.44444 9 5.44444C10.4728 5.44444 11.6667 6.63835 11.6667 8.11111Z" stroke="white" stroke-width="1.5" stroke-linecap="round" stroke-linejoin="round"/>
</svg>
