<svg width="20" height="19" viewBox="0 0 20 19" fill="none" xmlns="http://www.w3.org/2000/svg">
<path d="M8.42709 4.27536L14.042 12.7838M1.33672 8.95445L12.6813 1.4679C13.0729 1.20949 13.5998 1.31744 13.8583 1.70903L14.7941 3.12711C13.6193 3.90236 13.2954 5.48317 14.0707 6.65795C14.846 7.83272 16.4268 8.15659 17.6015 7.38133L18.5374 8.7994C18.7958 9.19099 18.6878 9.71793 18.2962 9.97635L6.95163 17.4629C6.56004 17.7213 6.03311 17.6134 5.77469 17.2218L4.83887 15.8037C6.01364 15.0284 6.33751 13.4476 5.56225 12.2729C4.787 11.0981 3.20618 10.7742 2.03141 11.5495L1.09559 10.1314C0.837176 9.73981 0.945132 9.21287 1.33672 8.95445Z" stroke="white" stroke-width="1.5" stroke-linecap="round" stroke-linejoin="round"/>
</svg>
