<svg width="243" height="98" viewBox="0 0 243 98" fill="none" xmlns="http://www.w3.org/2000/svg">
<path d="M166.06 55.0375C165.615 54.8283 165.226 54.8283 164.836 54.8806C163.335 54.9852 162 55.456 160.832 56.2406C159.775 56.9728 158.719 57.6528 157.551 58.1236C156.661 58.4897 155.715 58.7512 154.77 58.9604C154.603 58.9604 154.492 59.0127 154.269 59.065C155.27 59.6927 156.327 59.7973 157.495 59.4835C156.438 61.3142 156.216 63.1972 156.271 65.1848C156.383 65.1325 156.438 65.1325 156.438 65.1325C157.996 63.8248 159.275 62.308 159.998 60.4773C160.109 60.1112 160.22 59.7973 160.331 59.4312C160.554 58.5943 161.11 58.1235 162.056 58.0712C162.834 58.0189 163.613 58.2282 164.336 58.4374C164.447 58.4374 164.558 58.542 164.614 58.5943C164.892 59.065 165.393 59.3266 165.782 59.6927C166.505 60.2681 167.284 60.8434 168.007 61.4711C169.119 62.4126 170.064 63.5633 170.676 64.8709C170.676 64.9232 170.732 64.9755 170.787 65.0278C170.787 65.0278 170.787 65.0278 170.843 65.0278C171.01 64.714 171.065 64.4002 171.065 64.0864C171.065 62.5172 170.62 61.105 169.897 59.6927C169.675 59.2743 169.453 58.8558 169.174 58.4897C168.785 57.9143 168.173 57.3913 167.506 57.0774C167.005 56.8682 166.505 56.5544 166.004 56.2929C165.226 55.8744 165.003 55.5606 166.004 55.0375C165.893 55.1422 165.949 55.1422 166.06 55.0375Z" fill="black"/>
<path d="M241.173 14.1165C241.241 13.9794 241.264 13.8422 241.241 13.705C241.196 12.9408 240.875 12.2354 240.349 11.6083C240.188 11.4123 239.982 11.2556 239.731 11.1576C239.525 11.0792 239.318 10.9812 239.112 10.8832C239.021 10.8441 238.952 10.8049 238.884 10.7461C238.769 10.6677 238.769 10.5893 238.884 10.5109C238.952 10.4521 239.021 10.4325 239.09 10.3738C239.021 10.315 238.929 10.315 238.838 10.315C238.38 10.2954 237.945 10.3934 237.556 10.5697C237.373 10.6481 237.167 10.7461 237.006 10.8441C236.228 11.3927 235.381 11.7847 234.397 11.9806C234.374 11.9806 234.351 12.0002 234.305 12.0198C234.511 12.1178 234.717 12.1962 234.946 12.2158C235.175 12.2158 235.381 12.1962 235.61 12.1962C235.198 12.8624 235.152 13.5679 235.198 14.3125C235.221 14.3125 235.267 14.2929 235.267 14.2929C235.862 13.803 236.343 13.2543 236.64 12.5881C236.709 12.4313 236.755 12.2745 236.8 12.1178C236.892 11.8043 237.052 11.6475 237.441 11.5887C237.808 11.5299 238.151 11.6083 238.494 11.7259C238.517 11.7259 238.54 11.7455 238.563 11.7847C238.7 11.961 238.884 12.059 239.067 12.1766C239.479 12.4509 239.891 12.7056 240.257 13.0192C240.623 13.3327 240.921 13.6658 241.15 14.0578C241.127 14.0382 241.15 14.0774 241.173 14.1165Z" fill="black"/>
<path d="M234.26 2C234.815 2.54965 235.503 2.86374 236.28 3.04041C236.68 3.13857 237.08 3.25635 237.391 3.53117C237.502 3.62932 237.613 3.7471 237.679 3.86489C237.835 4.15934 237.679 4.4538 237.324 4.55195C237.102 4.61084 236.858 4.63047 236.636 4.6501C236.569 4.6501 236.502 4.66973 236.414 4.68936C236.48 4.76788 236.569 4.80715 236.658 4.82678C236.902 4.9053 237.169 4.9053 237.435 4.88567C237.59 4.86604 237.746 4.80715 237.901 4.80715C238.057 4.80715 238.212 4.88566 238.345 4.94456C239.056 5.12123 239.855 4.86604 240.277 4.31639C240.477 4.04156 240.766 3.88452 241.188 3.86489C240.988 3.76673 240.81 3.76673 240.633 3.76673C240.566 3.68821 240.499 3.62933 240.433 3.5508C240.522 3.51154 240.588 3.45265 240.677 3.41339C240.988 3.27598 241.299 3.21709 241.61 3.1582C241.765 3.13857 241.921 3.0993 242.076 3.07967C242.387 3.04041 242.631 2.88337 242.809 2.66744C242.853 2.60855 242.898 2.53002 242.875 2.43187C242.831 2.4515 242.764 2.47113 242.72 2.49076C242.276 2.68706 241.81 2.80485 241.321 2.84411C241.143 2.84411 240.966 2.84411 240.788 2.84411C240.699 2.84411 240.61 2.84411 240.544 2.84411C240.277 2.84411 240.055 2.96189 239.944 3.17782C239.833 3.39376 239.611 3.51154 239.345 3.57043C239.234 3.59006 239.189 3.57043 239.1 3.49191C238.79 3.19745 238.434 2.96189 238.012 2.82448C237.679 2.72633 237.346 2.68706 236.991 2.68706C236.591 2.68706 236.191 2.62817 235.814 2.53002C235.348 2.39261 234.904 2.25519 234.459 2.09815C234.371 2.03926 234.326 2.03926 234.26 2C234.26 2.01963 234.26 2 234.26 2Z" fill="black"/>
<path d="M143.427 35.6296C143.289 35.502 143.116 35.502 142.978 35.47C142.84 35.4381 142.737 35.47 142.599 35.47C142.495 35.3424 142.426 35.2466 142.323 35.119C142.461 35.0551 142.564 34.9913 142.702 34.8956C143.151 34.7041 143.634 34.6083 144.117 34.5445C144.393 34.5126 144.669 34.4488 144.945 34.4169C145.428 34.353 145.808 34.0977 146.118 33.7467C146.187 33.6509 146.256 33.5552 146.187 33.3956C146.118 33.4275 146.049 33.4275 145.98 33.4594C145.014 33.9062 143.979 34.0658 142.909 34.002C142.702 34.002 142.53 34.002 142.288 34.002C142.012 34.002 141.805 34.1296 141.667 34.353C141.632 34.4169 141.598 34.4488 141.563 34.5126C141.356 34.8637 141.08 35.0232 140.666 35.0871C140.494 35.119 140.356 35.0871 140.252 34.9594C139.7 34.3211 138.975 33.9062 138.113 33.7147C137.733 33.6509 137.388 33.5871 137.009 33.5871C136.284 33.5871 135.594 33.4275 134.938 33.1722C134.317 32.9488 133.696 32.7254 133.075 32.4701C133.04 32.4701 133.006 32.4382 132.902 32.4062C133.04 32.5977 133.144 32.7254 133.282 32.853C134.076 33.4913 134.973 33.9701 135.973 34.1935C136.594 34.353 137.147 34.5764 137.63 34.9594C137.802 35.0871 137.975 35.2785 138.078 35.47C138.389 35.9807 138.113 36.5232 137.492 36.6509C137.181 36.7147 136.871 36.7466 136.525 36.7785C136.387 36.7785 136.284 36.8104 136.111 36.8424C136.249 37.0019 136.387 37.0658 136.56 37.0977C137.043 37.2253 137.561 37.2253 138.044 37.1296C138.285 37.0977 138.527 37.0977 138.768 37.1934C139.942 37.6721 141.322 37.3211 142.081 36.3636C142.392 35.9168 142.84 35.6296 143.427 35.6296Z" fill="black"/>
<path d="M116.524 28.2234C116.386 28.0957 116.214 28.0957 116.076 28.0638C115.938 28.0319 115.834 28.0638 115.696 28.0638C115.593 27.9361 115.524 27.8404 115.42 27.7127C115.558 27.6489 115.662 27.5851 115.8 27.4893C116.248 27.2978 116.731 27.2021 117.215 27.1383C117.491 27.1064 117.767 27.0425 118.043 27.0106C118.526 26.9468 118.905 26.6915 119.216 26.3404C119.285 26.2447 119.354 26.1489 119.285 25.9893C119.216 26.0213 119.147 26.0213 119.078 26.0532C118.112 26.5 117.076 26.6595 116.007 26.5957C115.8 26.5957 115.627 26.5957 115.386 26.5957C115.11 26.5957 114.903 26.7234 114.765 26.9468C114.73 27.0106 114.696 27.0425 114.661 27.1064C114.454 27.4574 114.178 27.617 113.764 27.6808C113.591 27.7127 113.453 27.6808 113.35 27.5532C112.798 26.9149 112.073 26.5 111.21 26.3085C110.831 26.2447 110.486 26.1808 110.106 26.1808C109.382 26.1808 108.691 26.0213 108.036 25.7659C107.415 25.5425 106.794 25.3191 106.173 25.0638C106.138 25.0638 106.104 25.0319 106 25C106.138 25.1915 106.242 25.3191 106.38 25.4468C107.173 26.0851 108.07 26.5638 109.071 26.7872C109.692 26.9468 110.244 27.1702 110.727 27.5532C110.9 27.6808 111.072 27.8723 111.176 28.0638C111.486 28.5744 111.21 29.117 110.589 29.2446C110.279 29.3085 109.968 29.3404 109.623 29.3723C109.485 29.3723 109.382 29.4042 109.209 29.4361C109.347 29.5957 109.485 29.6595 109.658 29.6914C110.141 29.8191 110.658 29.8191 111.141 29.7233C111.383 29.6914 111.625 29.6914 111.866 29.7872C113.039 30.2659 114.42 29.9148 115.179 28.9574C115.489 28.5106 115.938 28.2234 116.524 28.2234Z" fill="black"/>
<path d="M213.945 23.9638C214.116 24.1251 214.245 24.2864 214.416 24.4074C215.403 25.1736 216.475 25.6978 217.719 25.98C218.363 26.1413 219.006 26.343 219.564 26.7059C219.864 26.9075 220.121 27.1495 220.336 27.4317C220.508 27.6333 220.636 27.9156 220.593 28.1576C220.55 28.6414 220.293 28.964 219.778 29.085C219.478 29.1657 219.135 29.206 218.792 29.2463C218.577 29.2866 218.32 29.2866 218.062 29.327C218.191 29.5286 218.363 29.5689 218.534 29.6092C219.135 29.8109 219.735 29.7705 220.336 29.6496H220.379C220.765 29.5286 221.108 29.5689 221.451 29.7302C222.867 30.2544 224.583 29.7302 225.44 28.5608C225.912 27.8753 226.341 27.6737 227.199 27.593C226.813 27.3914 226.427 27.3511 226.084 27.3914C225.955 27.2301 225.869 27.1091 225.741 26.9478C225.955 26.7865 226.213 26.6656 226.47 26.5849C227.199 26.3026 227.928 26.1414 228.658 26.0607C229.172 25.9801 229.687 25.8188 230.073 25.4962C230.202 25.3752 230.33 25.2139 230.416 25.0929C230.459 25.0123 230.502 24.851 230.545 24.6897C230.373 24.7703 230.245 24.8107 230.116 24.851C228.958 25.4155 227.714 25.6575 226.427 25.5768C226.127 25.5768 225.869 25.5768 225.569 25.6171C225.269 25.6575 225.011 25.8188 224.84 26.0607C224.797 26.1414 224.754 26.222 224.668 26.3027C224.411 26.7462 224.025 26.9882 223.51 27.0688C223.339 27.1091 223.21 27.0688 223.081 26.9478C222.995 26.8269 222.91 26.7865 222.824 26.6656C221.966 25.8591 220.936 25.4155 219.735 25.2945C219.392 25.2542 219.006 25.2542 218.62 25.2542C217.805 25.2542 217.033 25.0526 216.261 24.8106C215.489 24.5687 214.76 24.2864 213.987 24.0042C213.945 24.0042 213.902 23.9638 213.859 23.9638C213.945 23.9235 213.945 23.9235 213.945 23.9638Z" fill="black"/>
<path d="M190.073 9.07158C189.985 8.96564 189.927 8.88618 189.84 8.78024C189.927 8.6743 190.073 8.64782 190.189 8.59485C190.596 8.40945 191.032 8.32999 191.467 8.25053C191.642 8.22405 191.845 8.19756 192.02 8.14459C192.455 8.06513 192.746 7.85325 193.008 7.53543C193.066 7.45597 193.124 7.37651 193.037 7.27057C192.978 7.29706 192.891 7.32354 192.833 7.37651C192.078 7.74731 191.293 7.90622 190.45 7.85325C190.305 7.85325 190.131 7.85325 189.985 7.85325C189.608 7.85325 189.346 7.98568 189.201 8.30351C189.026 8.62133 188.765 8.78025 188.387 8.83322C188.271 8.8597 188.184 8.83322 188.067 8.72728C187.399 8.01217 186.527 7.66785 185.51 7.64137C184.58 7.64137 183.738 7.42949 182.866 7.16463C182.517 7.05869 182.168 6.89977 181.791 6.82031C181.907 6.92625 181.994 7.0322 182.11 7.11166C182.779 7.61488 183.505 7.98568 184.348 8.17108C184.813 8.27702 185.278 8.40945 185.656 8.6743C185.859 8.80673 186.033 8.96565 186.179 9.15105C186.527 9.62779 186.295 10.1045 185.685 10.2369C185.481 10.2899 185.249 10.2899 185.016 10.3429C184.9 10.3694 184.755 10.3694 184.609 10.3959C184.726 10.5283 184.842 10.5548 184.958 10.6078C185.336 10.7137 185.714 10.6872 186.091 10.6342C186.091 10.6342 186.12 10.6342 186.15 10.6342C186.411 10.5283 186.673 10.5813 186.934 10.6872C187.893 11.0315 189.026 10.6872 189.608 9.89264C189.869 9.52184 190.218 9.30996 190.683 9.25699H190.712C190.596 9.09807 190.537 9.07158 190.073 9.07158Z" fill="black"/>
<path d="M82.6457 16.4825C82.5021 16.3014 82.2628 16.3014 82.0713 16.2561C81.8799 16.2108 81.6884 16.2108 81.497 16.2108C81.3534 16.0297 81.2577 15.8939 81.0662 15.7128C81.3055 15.5769 81.5448 15.4411 81.7842 15.3506C82.5021 15.0789 83.2679 14.9431 83.9858 14.8072C84.2251 14.7619 84.4644 14.7619 84.7037 14.7167C85.3738 14.6261 85.9003 14.2186 86.331 13.7206C86.4267 13.5847 86.4267 13.4489 86.5225 13.2225C86.331 13.2678 86.2353 13.3131 86.1396 13.3583C84.7516 14.0375 83.22 14.2639 81.6884 14.0828C81.4491 14.0828 81.1619 14.0828 80.9226 14.1281C80.5876 14.1733 80.3483 14.3092 80.1568 14.6261C80.109 14.7167 80.0133 14.8525 79.9654 14.9431C79.6782 15.4411 79.1518 15.6222 78.5774 15.7128C78.4338 15.7128 78.3381 15.6675 78.2424 15.577C78.0509 15.3958 77.9074 15.2147 77.7159 15.0336C76.7108 14.1281 75.4664 13.5847 74.1263 13.5847C72.3554 13.5394 70.7281 12.9961 69.1008 12.4075C68.7658 12.2717 68.4307 12.0906 68 12C68.1914 12.1811 68.335 12.4075 68.5264 12.5433C69.6273 13.4489 70.8717 14.0828 72.2597 14.445C73.169 14.6714 74.0305 15.0789 74.7006 15.7128C74.8921 15.9392 75.0835 16.2108 75.2271 16.4825C75.4664 17.1164 75.1314 17.7503 74.4613 17.9314C73.9348 18.0672 73.4562 18.0672 72.9297 18.1578C72.7861 18.1578 72.5947 18.2031 72.4032 18.2031C72.7383 18.52 73.0733 18.6106 73.4083 18.6558C74.0306 18.7464 74.7006 18.7011 75.275 18.5653C75.4664 18.52 75.6578 18.52 75.8972 18.6106C77.6202 19.4256 79.6304 18.9275 80.7791 17.4333C81.2577 16.8447 81.832 16.5278 82.6457 16.4825Z" fill="black"/>
<path d="M29 29C29.1098 29.1569 29.2196 29.3138 29.3294 29.4707C30.5923 30.6215 32.0748 31.4583 33.777 31.8768C34.5457 32.086 35.3144 32.3998 36.0282 32.8183C36.4125 33.0798 36.7969 33.3937 37.0165 33.8121C37.2361 34.1259 37.3459 34.4921 37.291 34.8582C37.2361 35.3813 36.9616 35.7997 36.4125 35.9043C35.9183 36.0089 35.4242 36.0612 34.8751 36.1135C34.6006 36.1658 34.326 36.1658 33.9966 36.2181C34.1613 36.4797 34.3809 36.532 34.6006 36.6366C35.2046 36.8458 35.8634 36.8458 36.5223 36.7935C36.9067 36.7412 37.291 36.5843 37.6205 36.6366C38.0048 36.6366 38.3343 36.8981 38.6637 37.0027C40.4208 37.5258 42.3974 36.8981 43.4956 35.4859C44.0447 34.7536 44.7585 34.3351 45.8017 34.2828C45.3076 34.0213 44.8134 33.969 44.3741 33.969C44.2094 33.7598 44.0447 33.6029 43.88 33.3413C44.2643 33.1321 44.6487 32.9752 45.0879 32.8183C46.0763 32.5044 47.0646 32.3475 48.0529 32.1906C48.8216 32.086 49.4256 31.6676 49.9198 31.0922C50.0296 30.9353 50.1394 30.7784 50.0845 30.5169C49.9198 30.5692 49.81 30.6215 49.7002 30.6738C48.1628 31.406 46.6253 31.6676 44.9232 31.5106C44.6487 31.5106 44.3192 31.5106 44.0447 31.5106C43.4956 31.5106 43.0563 31.7199 42.7818 32.1906C42.7269 32.3475 42.6171 32.4521 42.5073 32.6091C42.1229 33.1321 41.5738 33.289 40.9698 33.3413C40.86 33.3413 40.7502 33.289 40.6404 33.1844C40.4208 33.0275 40.2561 32.8183 40.0913 32.6614C38.9932 31.6153 37.6754 31.0399 36.1929 30.883C35.5889 30.8307 34.9849 30.8307 34.3809 30.7261C32.6239 30.4645 30.9218 29.8369 29.3294 29.1046C29.2745 29.1046 29.1098 29.0523 29 29Z" fill="black"/>
<path d="M71 89C71.1647 89.2092 71.2746 89.4184 71.4942 89.5754C72.7573 90.6738 74.1852 91.406 75.8327 91.8245C76.8212 92.086 77.7548 92.4521 78.4687 93.1321C78.7433 93.3936 79.0179 93.7075 79.1827 94.0213C79.5671 94.8582 79.1827 95.6951 78.2491 95.9043C77.8647 96.0089 77.4253 96.0089 76.986 96.1135C76.7114 96.1658 76.3819 96.1658 76.0524 96.2181C76.2171 96.4797 76.4368 96.532 76.6565 96.6366C77.2606 96.8458 77.9745 96.8981 78.5786 96.7935C79.2925 96.6366 79.9515 96.5843 80.6105 97.0027C82.4228 97.5781 84.4547 96.8981 85.5531 95.4335C85.8826 95.0151 86.2121 94.7013 86.7064 94.4921C87.0359 94.3874 87.3654 94.3351 87.6949 94.2828C87.2555 94.0736 86.7613 94.0213 86.3219 94.0213C86.1572 93.8121 85.9924 93.6552 85.8826 93.446C86.3219 93.1321 86.8162 92.9229 87.3654 92.8183C88.2441 92.6091 89.1776 92.4521 90.0563 92.2952C90.8252 92.1906 91.4293 91.7722 91.8686 91.1968C91.9784 91.0399 92.0883 90.883 91.9784 90.6215C91.8137 90.6738 91.7038 90.7261 91.594 90.8307C90.1112 91.5107 88.5735 91.7722 86.9809 91.6676C86.6514 91.6676 86.3219 91.6676 85.9924 91.6676C85.4433 91.6676 85.0588 91.8768 84.7842 92.3475C84.7293 92.4521 84.6744 92.5568 84.5646 92.6614C84.2351 93.2367 83.6859 93.446 83.0269 93.5506C82.8072 93.5506 82.6974 93.5506 82.5875 93.3936C82.3679 93.1844 82.2031 92.9752 81.9835 92.8183C80.94 91.8245 79.622 91.3014 78.1392 91.1445C77.5351 91.0922 76.9311 91.0922 76.327 90.9876C74.5147 90.7261 72.8672 90.0461 71.2196 89.3661C71.2196 89.0523 71.1098 89.0523 71 89Z" fill="black"/>
<path d="M45.9999 42C47.3171 43.4645 48.9636 44.3014 50.8846 44.8245C51.8176 45.086 52.6409 45.3998 53.4092 45.9752C53.7934 46.2367 54.0679 46.5506 54.2874 46.969C54.6167 47.649 54.4521 48.6428 53.2995 48.9043C52.8604 49.0089 52.4213 49.0089 51.9274 49.1135C51.653 49.1135 51.3786 49.1658 51.1041 49.2181C51.3237 49.4797 51.5432 49.5843 51.8176 49.6366C52.6409 49.8981 53.4641 49.8458 54.2874 49.6889C54.6716 49.6366 54.946 49.6366 55.2753 49.7935C57.1413 50.6304 59.4465 50.055 60.6539 48.4335C61.2028 47.7013 61.9162 47.2828 62.959 47.2828C62.4651 46.969 61.9711 46.969 61.5321 46.969C61.3674 46.7598 61.2576 46.6029 61.093 46.3936C61.5321 46.0798 62.026 45.8706 62.52 45.766C63.3981 45.5568 64.2763 45.3998 65.2093 45.2429C65.9777 45.1383 66.5814 44.7722 67.0753 44.1968C67.24 44.0399 67.3498 43.8307 67.24 43.5692C67.0753 43.6215 66.9656 43.6738 66.8558 43.7261C65.6484 44.3014 64.386 44.563 63.0688 44.6153C62.7395 44.6153 62.4102 44.6153 62.0809 44.563C61.8065 44.563 61.5321 44.563 61.2577 44.563C60.7088 44.563 60.2697 44.7722 59.9953 45.2952C59.9404 45.4521 59.8307 45.5568 59.7758 45.6614C59.3916 46.1844 58.8976 46.3936 58.239 46.446C58.0195 46.446 57.9646 46.3413 57.8548 46.2367C57.4158 45.8183 56.9767 45.3998 56.4827 45.0337C55.3851 44.3014 54.1776 43.9353 52.8604 43.9353C51.653 43.9353 50.4455 43.6738 49.293 43.2553C48.3599 42.9415 47.4269 42.523 46.4939 42.1569C46.2743 42.0523 46.1097 42.0523 45.9999 42Z" fill="black"/>
<path d="M190.266 29.502C190.464 29.6891 190.612 29.8295 190.809 30.0166C191.994 30.9523 193.278 31.6074 194.808 31.9349C195.696 32.122 196.536 32.4963 197.227 33.1045C197.523 33.3385 197.77 33.6192 197.918 33.9935C198.165 34.6485 197.869 35.3035 197.177 35.4906C196.733 35.631 196.239 35.6778 195.795 35.7246C195.598 35.7713 195.351 35.7714 195.104 35.8181C195.302 36.0521 195.548 36.1456 195.795 36.1924C196.536 36.3796 197.326 36.3328 198.066 36.1457C198.362 36.0989 198.609 36.0989 198.856 36.1924C200.584 36.8942 202.657 36.3796 203.694 34.8824C204.138 34.2742 204.73 33.8999 205.471 33.8063C205.52 33.8063 205.57 33.8063 205.619 33.7595C205.224 33.5256 204.829 33.5256 204.434 33.5724C204.286 33.3852 204.187 33.2449 203.99 33.0577C204.237 32.9174 204.484 32.777 204.73 32.6834C205.52 32.3559 206.31 32.1688 207.149 32.0284C207.347 31.9816 207.495 31.9816 207.692 31.9349C208.384 31.7945 208.927 31.4202 209.322 30.8588C209.42 30.6716 209.42 30.6716 209.371 30.3909C209.223 30.4377 209.075 30.5313 208.927 30.578C207.692 31.1863 206.31 31.467 204.928 31.4202C204.681 31.4202 204.385 31.4202 204.138 31.4202C203.546 31.4202 203.052 31.6541 202.805 32.2156C202.558 32.7302 202.114 33.0577 201.522 33.1513C201.275 33.1981 201.077 33.1513 200.929 32.9642C199.744 31.7009 198.264 31.0927 196.536 31.0927C195.153 31.0927 193.821 30.7652 192.537 30.3441C191.846 30.1102 191.105 29.8295 190.414 29.5487C190.316 29.502 190.316 29.502 190.266 29.502Z" fill="black"/>
<path d="M114.386 71.1116C114.55 71.3208 114.715 71.4777 114.935 71.6346C116.197 72.6807 117.624 73.413 119.325 73.7791C120.203 73.9884 121.026 74.3022 121.794 74.7729C122.178 75.0345 122.508 75.3483 122.782 75.7144C123.331 76.6036 122.947 77.5451 121.904 77.7543C121.41 77.859 120.916 77.9113 120.367 77.9636C120.148 77.9636 119.983 78.0159 119.764 78.0682C120.148 78.4343 120.532 78.4866 120.971 78.5912C121.685 78.6958 122.453 78.5912 123.111 78.4343C123.331 78.382 123.55 78.382 123.825 78.4866C125.745 79.3235 127.995 78.7482 129.203 77.1267C129.916 76.1852 130.3 75.976 131.453 75.8191C131.014 75.5575 130.52 75.5575 130.081 75.6098C129.916 75.4006 129.751 75.2437 129.587 75.0345C129.971 74.7206 130.41 74.5114 130.904 74.4068C131.837 74.1976 132.77 73.9884 133.703 73.7791C134.526 73.6222 135.129 73.2038 135.568 72.5761C135.678 72.4192 135.788 72.2623 135.678 72.0008C135.568 72.0531 135.459 72.0531 135.349 72.1054C133.812 72.89 132.221 73.2038 130.465 73.0992C130.19 73.0992 129.861 73.0992 129.587 73.0992C129.093 73.0992 128.709 73.3607 128.434 73.7791C128.325 73.9361 128.215 74.093 128.105 74.2499C127.721 74.7729 127.227 74.9299 126.623 74.9822C126.514 74.9822 126.404 74.8775 126.294 74.8252C126.075 74.6683 125.91 74.4591 125.745 74.3022C124.593 73.2561 123.166 72.733 121.575 72.6284C120.697 72.5761 119.819 72.6284 118.996 72.4192C117.569 72.1054 116.142 71.6346 114.77 71.0593C114.66 71.007 114.55 70.9546 114.441 70.9023C114.441 71.1116 114.386 71.1116 114.386 71.1116Z" fill="black"/>
<path d="M133.741 0.942492C133.962 1.15171 134.128 1.30863 134.349 1.51785C135.508 2.40704 136.778 3.03471 138.214 3.34854C138.932 3.50545 139.595 3.76698 140.202 4.18543C140.423 4.34234 140.644 4.55157 140.865 4.76079C141.03 4.9177 141.141 5.07462 141.196 5.28384C141.527 6.01611 141.196 6.69607 140.423 6.90529C139.926 7.0099 139.429 7.06222 138.877 7.11453C138.766 7.11453 138.656 7.16682 138.49 7.16682C138.711 7.37604 138.877 7.48066 139.098 7.53296C139.816 7.74218 140.533 7.68987 141.251 7.48065C141.583 7.42835 141.859 7.42835 142.135 7.53296C143.847 8.21293 145.835 7.68988 146.884 6.22533C147.326 5.59767 147.933 5.23153 148.872 5.12691C148.43 4.86539 148.044 4.91769 147.657 4.86539C147.491 4.70847 147.381 4.55156 147.271 4.39464C147.657 4.08081 148.099 3.87158 148.596 3.76697C149.369 3.55775 150.142 3.40084 150.97 3.24392C151.633 3.08701 152.13 2.77318 152.517 2.25012C152.627 2.09321 152.738 1.93629 152.627 1.72707C152.461 1.77938 152.351 1.83169 152.241 1.884C150.97 2.51166 149.645 2.77317 148.209 2.72087C147.933 2.72087 147.602 2.72087 147.326 2.72087C146.829 2.72087 146.442 2.9301 146.166 3.40085C146.056 3.61007 145.945 3.76698 145.78 3.9239C145.448 4.29004 145.062 4.39465 144.62 4.44695C144.565 4.44695 144.454 4.39464 144.399 4.34234C144.344 4.29003 144.289 4.23773 144.178 4.13312C143.074 2.9824 141.693 2.35474 140.092 2.35474C138.325 2.35474 136.668 1.88399 135.066 1.30864C134.68 1.15172 134.238 0.994807 133.796 0.837891C133.741 0.890196 133.741 0.890186 133.741 0.942492Z" fill="black"/>
<path d="M18.8359 62.2553C18.615 62.3076 18.5045 62.3599 18.394 62.4122C17.0131 63.0399 15.5769 63.3014 14.0303 63.1445C13.9198 63.1445 13.8093 63.1445 13.6436 63.1445C13.036 63.1445 12.4836 63.3537 12.2074 63.8768C11.9864 64.3475 11.5446 64.6091 11.0474 64.7137C10.716 64.766 10.495 64.7137 10.2741 64.5044C9.16931 63.3014 7.73314 62.6215 6.07601 62.5692C4.03221 62.5169 2.20935 61.8369 0.441742 61.1046C0.276028 61.0523 0.165558 61 -0.000154495 61C0.165558 61.2092 0.331285 61.3661 0.497 61.5231C1.60176 62.4645 2.81698 63.0922 4.25317 63.4583C5.24745 63.7199 6.13126 64.086 6.84935 64.766C7.0703 64.9752 7.236 65.2367 7.34647 65.4982C7.62266 66.1782 7.29125 66.8059 6.57316 66.9628C6.07602 67.1197 5.52362 67.1197 5.02648 67.172C4.916 67.172 4.75029 67.172 4.58458 67.2243C4.75029 67.4859 4.97126 67.5381 5.19222 67.5905C5.85507 67.7997 6.51791 67.7474 7.18077 67.6428C7.56743 67.5905 7.95408 67.5905 8.34075 67.7474C9.94264 68.4273 11.8207 67.9566 12.8703 66.649C13.4226 65.969 14.0303 65.5505 15.0245 65.4982C14.5826 65.289 14.1407 65.2367 13.8093 65.2367C13.6436 65.0275 13.5331 64.8706 13.4226 64.7137C13.8645 64.3998 14.4169 64.1906 14.9693 64.086C15.6321 63.9291 16.3502 63.8245 17.0131 63.7199C17.6759 63.6153 18.2283 63.3537 18.7255 62.8307C18.7255 62.7261 18.8359 62.5169 18.8359 62.2553Z" fill="black"/>
<path d="M193.172 4.74219C193.751 4.32188 194.168 3.84554 194.522 3.28514C194.715 2.9489 194.875 2.61265 194.94 2.24839C195.036 1.88412 195.293 1.68798 195.711 1.65996C196.065 1.63194 196.418 1.68798 196.772 1.80006C196.804 1.80006 196.868 1.82808 196.9 1.88413C197.157 2.08027 197.382 2.27641 197.639 2.44453C198.025 2.75275 198.443 3.00494 198.828 3.31316C199.214 3.62138 199.535 3.98565 199.76 4.40595C199.793 4.46199 199.825 4.49001 199.889 4.54605C200.017 4.29387 199.985 4.06971 199.953 3.84554C199.857 3.14504 199.6 2.50057 199.15 1.91215C198.893 1.5759 198.571 1.2957 198.121 1.12757C197.896 1.04351 197.704 0.931433 197.479 0.847372C197.414 0.819352 197.35 0.763313 197.286 0.735293C197.157 0.651232 197.157 0.567173 197.286 0.483112C197.35 0.427071 197.446 0.371029 197.511 0.314989C197.382 0.230928 197.286 0.230924 197.157 0.258945C196.45 0.258945 195.807 0.483109 195.229 0.847372C195.133 0.903413 195.036 0.959457 194.972 1.04352C194.201 1.5759 193.333 1.96819 192.369 2.16433C192.305 2.16433 192.24 2.19234 192.176 2.22036C192.433 2.44453 192.754 2.50057 193.59 2.41651C193.172 3.089 193.076 3.90158 193.172 4.74219Z" fill="black"/>
<path d="M90.9991 64.9136C91.8499 65.4797 92.7614 65.5363 93.7945 65.3098C93.126 66.4985 92.8222 67.6872 92.7614 68.8759C92.7614 69.2721 92.7614 69.7249 92.7614 70.2344C92.8222 70.1778 92.9437 70.1778 92.9437 70.1212C94.2199 69.0457 95.3138 67.8004 95.9215 66.2721C96.043 65.9325 96.1646 65.6495 96.2253 65.2532C96.4684 64.4608 96.8938 64.0646 97.8054 64.008C98.4738 64.008 99.1423 64.1212 99.75 64.4042C99.8108 64.4042 99.9323 64.5174 99.9931 64.574C100.358 64.857 100.662 65.1966 101.026 65.4797C101.755 66.1023 102.545 66.6683 103.214 67.291C104.065 68.0268 104.733 68.8759 105.219 69.8947C105.219 69.9514 105.28 70.008 105.341 70.1212C105.523 69.8947 105.523 69.6683 105.584 69.3853C105.584 68.5929 105.462 67.8004 105.219 67.008C104.916 66.0457 104.49 65.14 103.882 64.291C103.518 63.8381 103.092 63.4985 102.606 63.2155C102.242 63.0457 101.877 62.8759 101.512 62.7061C101.33 62.6495 101.209 62.5363 101.026 62.4231C100.54 62.0834 100.54 61.9136 101.026 61.574C101.087 61.5174 101.209 61.4608 101.391 61.3476C101.087 61.291 100.844 61.2344 100.601 61.2344C99.2639 61.2344 98.0485 61.6306 96.9546 62.3665C96.6507 62.5929 96.3469 62.7627 96.043 62.9891C94.6453 63.8948 93.126 64.5174 91.4852 64.8004C91.3029 64.8004 91.1814 64.857 90.9991 64.9136Z" fill="black"/>
<path d="M19.437 34.1743C19.6628 33.4943 19.6064 32.8666 19.4935 32.2913C19.2677 31.0883 18.816 29.9898 18.1385 28.996C17.7433 28.473 17.348 28.0545 16.727 27.793C16.3882 27.6361 16.1059 27.4792 15.7672 27.3223C15.5978 27.2177 15.4284 27.1131 15.3155 27.0608C14.9203 26.7992 14.9203 26.59 15.3155 26.3285C15.372 26.2762 15.4849 26.2239 15.5414 26.0669C15.3155 26.0669 15.0332 25.9623 14.7509 26.0146C13.6217 26.067 12.549 26.3285 11.5892 26.9561C9.95192 28.1069 8.14522 28.996 5.99978 29.3622C6.79021 29.9375 7.63711 29.9375 8.59692 29.7283C7.80649 31.1929 7.58063 32.6574 7.58063 34.2789C7.69354 34.2266 7.75002 34.2266 7.80648 34.1743C8.93566 33.2328 9.83901 32.1867 10.4601 30.879C10.6294 30.5129 10.7424 30.1468 10.8553 29.7806C11.0811 28.9437 11.5892 28.5253 12.549 28.5776C13.1136 28.5776 13.6218 28.7868 14.1299 28.8914C14.2428 28.8914 14.2993 28.996 14.4122 29.0483C14.7509 29.3099 15.0332 29.6237 15.372 29.8852C16.0495 30.4606 16.7835 30.9313 17.4045 31.5067C18.1949 32.239 18.8725 33.0235 19.3241 33.965C19.3241 34.0173 19.3241 34.0696 19.437 34.1743Z" fill="black"/>
<path d="M170.054 43.6525C170.245 43.1313 170.197 42.6969 170.102 42.2626C169.911 41.307 169.53 40.3514 168.912 39.5262C168.578 39.0484 168.102 38.6141 167.531 38.3969C167.293 38.31 167.055 38.1797 166.817 38.0928C166.674 38.006 166.484 37.9191 166.388 37.8756C166.055 37.6585 166.055 37.4847 166.388 37.2676C166.436 37.2241 166.531 37.1807 166.627 37.0938C166.293 36.9635 165.96 37.0069 165.674 37.0069C164.77 37.1373 163.913 37.3979 163.199 37.9191C161.913 38.8747 160.485 39.5696 158.867 39.9171C158.819 39.9171 158.771 39.9171 158.771 39.9605C159.152 40.308 159.724 40.3949 160.866 40.2646C160.2 41.4808 160.104 42.6969 160.2 44C160.247 44 160.295 44 160.342 44C161.437 43.0444 162.342 42.002 162.77 40.6555C162.818 40.4818 162.866 40.308 162.913 40.1343C163.056 39.6131 163.342 39.3524 163.913 39.2656C164.532 39.1787 165.103 39.309 165.627 39.4828C165.674 39.4828 165.722 39.5262 165.817 39.5696C166.15 39.8737 166.531 40.1343 166.865 40.4383C167.531 40.9161 168.15 41.3939 168.769 41.9585C169.292 42.3929 169.673 42.9576 170.007 43.5222C169.959 43.4788 169.959 43.5222 170.054 43.6525Z" fill="black"/>
<path d="M228.624 5.62694C228.215 5.48005 227.888 5.55349 227.561 5.59021C226.825 5.70038 226.171 5.95743 225.598 6.36136C224.494 7.16923 223.309 7.75677 221.919 8.05054C221.878 8.05054 221.878 8.08725 221.837 8.08725C222.205 8.3443 222.491 8.41775 223.636 8.34431C223.105 9.33578 222.982 10.4007 223.064 11.5391C223.186 11.4656 223.227 11.3922 223.309 11.3555C223.881 10.8414 224.372 10.2905 224.74 9.66628C225.026 9.22562 225.189 8.78496 225.312 8.30758C225.435 7.72004 225.803 7.42628 226.457 7.463C226.866 7.463 227.274 7.57316 227.642 7.64661C227.724 7.64661 227.765 7.72004 227.847 7.75677C228.051 7.90365 228.256 8.08726 228.419 8.23415C228.705 8.45448 229.032 8.63808 229.359 8.89513C230.381 9.59283 230.749 10.0335 231.567 11.2453C231.608 11.0984 231.649 10.9882 231.649 10.9148C231.69 10.5109 231.649 10.1069 231.526 9.703C231.322 8.96857 231.036 8.27087 230.545 7.68333C230.259 7.2794 229.891 6.98562 229.4 6.80201C229.155 6.69185 228.91 6.58168 228.664 6.47152C228.583 6.4348 228.501 6.39808 228.378 6.32464C228.092 6.14103 228.092 6.03087 228.378 5.81054C228.46 5.7371 228.542 5.66366 228.624 5.62694Z" fill="black"/>
<path d="M36.3304 54.1801C36.5563 53.6048 36.5563 53.134 36.4434 52.6633C36.2739 51.4603 35.8221 50.3096 35.2007 49.2635C34.8053 48.6358 34.2405 48.1127 33.5062 47.7466C33.1673 47.5897 32.8284 47.3805 32.4895 47.2235C32.3765 47.1712 32.2071 47.0666 32.0941 46.962C31.8117 46.7528 31.8117 46.5959 32.0941 46.3867C32.2071 46.3344 32.32 46.2297 32.4895 46.1251C32.2071 46.0205 31.9247 45.9682 31.6987 46.0205C30.569 46.0728 29.4394 46.3344 28.5356 46.962C26.8976 48.1127 25.0901 49.0019 23.0002 49.3681C23.3956 49.7865 24.0169 49.9434 25.4855 49.7865C24.6947 51.1987 24.4688 52.7156 24.5253 54.2325C24.5818 54.2325 24.6382 54.2325 24.6947 54.2325C26.0503 53.134 27.067 51.8787 27.6884 50.3096C27.7448 50.1003 27.8013 49.9434 27.8578 49.7342C28.0837 49.0542 28.4791 48.6881 29.2134 48.6358C29.8912 48.5835 30.5691 48.7404 31.1904 49.0019C31.2469 49.0019 31.3033 49.1065 31.3598 49.1588C31.7552 49.525 32.1506 49.8388 32.546 50.1526C33.2238 50.728 33.9016 51.1987 34.5229 51.7741C35.2572 52.4541 35.8221 53.1863 36.2739 54.0755C36.2174 53.9709 36.2174 54.0232 36.3304 54.1801Z" fill="black"/>
<path d="M238.197 45.7261C238.423 45.1508 238.423 44.68 238.31 44.2616C238.141 43.0062 237.689 41.8555 237.011 40.7571C236.616 40.1295 236.107 39.6587 235.373 39.2926C235.034 39.1357 234.695 38.9264 234.356 38.7695C234.187 38.7172 234.074 38.6126 233.961 38.508C233.735 38.2988 233.735 38.1419 233.961 37.9326C234.074 37.828 234.187 37.7757 234.356 37.6711C234.187 37.6188 234.13 37.5665 234.017 37.5665C233.396 37.5142 232.775 37.5665 232.153 37.7234C231.419 37.9326 230.741 38.1942 230.176 38.6126C228.651 39.711 226.957 40.4956 225.036 40.8617C224.98 40.8617 224.98 40.8617 224.867 40.914C225.658 41.4371 226.448 41.4894 227.409 41.2802C226.618 42.7447 226.392 44.2093 226.392 45.8307C226.561 45.7261 226.618 45.7261 226.674 45.6215C227.522 44.8892 228.256 44.1047 228.877 43.1632C229.273 42.5878 229.555 41.9601 229.668 41.2802C229.894 40.3387 230.515 40.0248 231.419 40.0772C231.927 40.0772 232.436 40.2864 232.944 40.391C233.057 40.391 233.17 40.4956 233.227 40.5479C233.622 40.914 234.017 41.2279 234.413 41.594C235.034 42.1171 235.712 42.5878 236.333 43.1109C237.067 43.7908 237.689 44.5754 238.141 45.4123C238.084 45.5692 238.084 45.5692 238.197 45.7261Z" fill="black"/>
<path d="M241.173 14.1165C241.241 13.9794 241.264 13.8422 241.241 13.705C241.196 12.9408 240.875 12.2354 240.349 11.6083C240.188 11.4123 239.982 11.2556 239.731 11.1576C239.525 11.0792 239.318 10.9812 239.112 10.8832C239.021 10.8441 238.952 10.8049 238.884 10.7461C238.769 10.6677 238.769 10.5893 238.884 10.5109C238.952 10.4521 239.021 10.4325 239.09 10.3738C239.021 10.315 238.929 10.315 238.838 10.315C238.38 10.2954 237.945 10.3934 237.556 10.5697C237.373 10.6481 237.167 10.7461 237.006 10.8441C236.228 11.3927 235.381 11.7847 234.397 11.9806C234.374 11.9806 234.351 12.0002 234.305 12.0198C234.511 12.1178 234.717 12.1962 234.946 12.2158C235.175 12.2158 235.381 12.1962 235.61 12.1962C235.198 12.8624 235.152 13.5679 235.198 14.3125C235.221 14.3125 235.267 14.2929 235.267 14.2929C235.862 13.803 236.343 13.2543 236.64 12.5881C236.709 12.4313 236.755 12.2745 236.8 12.1178C236.892 11.8043 237.052 11.6475 237.441 11.5887C237.808 11.5299 238.151 11.6083 238.494 11.7259C238.517 11.7259 238.54 11.7455 238.563 11.7847C238.7 11.961 238.884 12.059 239.067 12.1766C239.479 12.4509 239.891 12.7056 240.257 13.0192C240.623 13.3327 240.921 13.6658 241.15 14.0578C241.127 14.0382 241.15 14.0774 241.173 14.1165Z" fill="black"/>
<path d="M234.26 2C234.815 2.54965 235.503 2.86374 236.28 3.04041C236.68 3.13857 237.08 3.25635 237.391 3.53117C237.502 3.62932 237.613 3.7471 237.679 3.86489C237.835 4.15934 237.679 4.4538 237.324 4.55195C237.102 4.61084 236.858 4.63047 236.636 4.6501C236.569 4.6501 236.502 4.66973 236.414 4.68936C236.48 4.76788 236.569 4.80715 236.658 4.82678C236.902 4.9053 237.169 4.9053 237.435 4.88567C237.59 4.86604 237.746 4.80715 237.901 4.80715C238.057 4.80715 238.212 4.88566 238.345 4.94456C239.056 5.12123 239.855 4.86604 240.277 4.31639C240.477 4.04156 240.766 3.88452 241.188 3.86489C240.988 3.76673 240.81 3.76673 240.633 3.76673C240.566 3.68821 240.499 3.62933 240.433 3.5508C240.522 3.51154 240.588 3.45265 240.677 3.41339C240.988 3.27598 241.299 3.21709 241.61 3.1582C241.765 3.13857 241.921 3.0993 242.076 3.07967C242.387 3.04041 242.631 2.88337 242.809 2.66744C242.853 2.60855 242.898 2.53002 242.875 2.43187C242.831 2.4515 242.764 2.47113 242.72 2.49076C242.276 2.68706 241.81 2.80485 241.321 2.84411C241.143 2.84411 240.966 2.84411 240.788 2.84411C240.699 2.84411 240.61 2.84411 240.544 2.84411C240.277 2.84411 240.055 2.96189 239.944 3.17782C239.833 3.39376 239.611 3.51154 239.345 3.57043C239.234 3.59006 239.189 3.57043 239.1 3.49191C238.79 3.19745 238.434 2.96189 238.012 2.82448C237.679 2.72633 237.346 2.68706 236.991 2.68706C236.591 2.68706 236.191 2.62817 235.814 2.53002C235.348 2.39261 234.904 2.25519 234.459 2.09815C234.371 2.03926 234.326 2.03926 234.26 2C234.26 2.01963 234.26 2 234.26 2Z" fill="black"/>
<path d="M213.945 23.9638C214.116 24.1251 214.245 24.2864 214.416 24.4074C215.403 25.1736 216.475 25.6978 217.719 25.98C218.363 26.1413 219.006 26.343 219.564 26.7059C219.864 26.9075 220.121 27.1495 220.336 27.4317C220.508 27.6333 220.636 27.9156 220.593 28.1576C220.55 28.6414 220.293 28.964 219.778 29.085C219.478 29.1657 219.135 29.206 218.792 29.2463C218.577 29.2866 218.32 29.2866 218.062 29.327C218.191 29.5286 218.363 29.5689 218.534 29.6092C219.135 29.8109 219.735 29.7705 220.336 29.6496H220.379C220.765 29.5286 221.108 29.5689 221.451 29.7302C222.867 30.2544 224.583 29.7302 225.44 28.5608C225.912 27.8753 226.341 27.6737 227.199 27.593C226.813 27.3914 226.427 27.3511 226.084 27.3914C225.955 27.2301 225.869 27.1091 225.741 26.9478C225.955 26.7865 226.213 26.6656 226.47 26.5849C227.199 26.3026 227.928 26.1414 228.658 26.0607C229.172 25.9801 229.687 25.8188 230.073 25.4962C230.202 25.3752 230.33 25.2139 230.416 25.0929C230.459 25.0123 230.502 24.851 230.545 24.6897C230.373 24.7703 230.245 24.8107 230.116 24.851C228.958 25.4155 227.714 25.6575 226.427 25.5768C226.127 25.5768 225.869 25.5768 225.569 25.6171C225.269 25.6575 225.011 25.8188 224.84 26.0607C224.797 26.1414 224.754 26.222 224.668 26.3027C224.411 26.7462 224.025 26.9882 223.51 27.0688C223.339 27.1091 223.21 27.0688 223.081 26.9478C222.995 26.8269 222.91 26.7865 222.824 26.6656C221.966 25.8591 220.936 25.4155 219.735 25.2945C219.392 25.2542 219.006 25.2542 218.62 25.2542C217.805 25.2542 217.033 25.0526 216.261 24.8106C215.489 24.5687 214.76 24.2864 213.987 24.0042C213.945 24.0042 213.902 23.9638 213.859 23.9638C213.945 23.9235 213.945 23.9235 213.945 23.9638Z" fill="black"/>
<path d="M190.073 9.07158C189.985 8.96564 189.927 8.88618 189.84 8.78024C189.927 8.6743 190.073 8.64782 190.189 8.59485C190.596 8.40945 191.032 8.32999 191.467 8.25053C191.642 8.22405 191.845 8.19756 192.02 8.14459C192.455 8.06513 192.746 7.85325 193.008 7.53543C193.066 7.45597 193.124 7.37651 193.037 7.27057C192.978 7.29706 192.891 7.32354 192.833 7.37651C192.078 7.74731 191.293 7.90622 190.45 7.85325C190.305 7.85325 190.131 7.85325 189.985 7.85325C189.608 7.85325 189.346 7.98568 189.201 8.30351C189.026 8.62133 188.765 8.78025 188.387 8.83322C188.271 8.8597 188.184 8.83322 188.067 8.72728C187.399 8.01217 186.527 7.66785 185.51 7.64137C184.58 7.64137 183.738 7.42949 182.866 7.16463C182.517 7.05869 182.168 6.89977 181.791 6.82031C181.907 6.92625 181.994 7.0322 182.11 7.11166C182.779 7.61488 183.505 7.98568 184.348 8.17108C184.813 8.27702 185.278 8.40945 185.656 8.6743C185.859 8.80673 186.033 8.96565 186.179 9.15105C186.527 9.62779 186.295 10.1045 185.685 10.2369C185.481 10.2899 185.249 10.2899 185.016 10.3429C184.9 10.3694 184.755 10.3694 184.609 10.3959C184.726 10.5283 184.842 10.5548 184.958 10.6078C185.336 10.7137 185.714 10.6872 186.091 10.6342C186.091 10.6342 186.12 10.6342 186.15 10.6342C186.411 10.5283 186.673 10.5813 186.934 10.6872C187.893 11.0315 189.026 10.6872 189.608 9.89264C189.869 9.52184 190.218 9.30996 190.683 9.25699H190.712C190.596 9.09807 190.537 9.07158 190.073 9.07158Z" fill="black"/>
<path d="M190.266 29.502C190.464 29.6891 190.612 29.8295 190.809 30.0166C191.994 30.9523 193.278 31.6074 194.808 31.9349C195.696 32.122 196.536 32.4963 197.227 33.1045C197.523 33.3385 197.77 33.6192 197.918 33.9935C198.165 34.6485 197.869 35.3035 197.177 35.4906C196.733 35.631 196.239 35.6778 195.795 35.7246C195.598 35.7713 195.351 35.7714 195.104 35.8181C195.302 36.0521 195.548 36.1456 195.795 36.1924C196.536 36.3796 197.326 36.3328 198.066 36.1457C198.362 36.0989 198.609 36.0989 198.856 36.1924C200.584 36.8942 202.657 36.3796 203.694 34.8824C204.138 34.2742 204.73 33.8999 205.471 33.8063C205.52 33.8063 205.57 33.8063 205.619 33.7595C205.224 33.5256 204.829 33.5256 204.434 33.5724C204.286 33.3852 204.187 33.2449 203.99 33.0577C204.237 32.9174 204.484 32.777 204.73 32.6834C205.52 32.3559 206.31 32.1688 207.149 32.0284C207.347 31.9816 207.495 31.9816 207.692 31.9349C208.384 31.7945 208.927 31.4202 209.322 30.8588C209.42 30.6716 209.42 30.6716 209.371 30.3909C209.223 30.4377 209.075 30.5313 208.927 30.578C207.692 31.1863 206.31 31.467 204.928 31.4202C204.681 31.4202 204.385 31.4202 204.138 31.4202C203.546 31.4202 203.052 31.6541 202.805 32.2156C202.558 32.7302 202.114 33.0577 201.522 33.1513C201.275 33.1981 201.077 33.1513 200.929 32.9642C199.744 31.7009 198.264 31.0927 196.536 31.0927C195.153 31.0927 193.821 30.7652 192.537 30.3441C191.846 30.1102 191.105 29.8295 190.414 29.5487C190.316 29.502 190.316 29.502 190.266 29.502Z" fill="black"/>
<path d="M193.172 4.74219C193.751 4.32188 194.168 3.84554 194.522 3.28514C194.715 2.9489 194.875 2.61265 194.94 2.24839C195.036 1.88412 195.293 1.68798 195.711 1.65996C196.065 1.63194 196.418 1.68798 196.772 1.80006C196.804 1.80006 196.868 1.82808 196.9 1.88413C197.157 2.08027 197.382 2.27641 197.639 2.44453C198.025 2.75275 198.443 3.00494 198.828 3.31316C199.214 3.62138 199.535 3.98565 199.76 4.40595C199.793 4.46199 199.825 4.49001 199.889 4.54605C200.017 4.29387 199.985 4.06971 199.953 3.84554C199.857 3.14504 199.6 2.50057 199.15 1.91215C198.893 1.5759 198.571 1.2957 198.121 1.12757C197.896 1.04351 197.704 0.931433 197.479 0.847372C197.414 0.819352 197.35 0.763313 197.286 0.735293C197.157 0.651232 197.157 0.567173 197.286 0.483112C197.35 0.427071 197.446 0.371029 197.511 0.314989C197.382 0.230928 197.286 0.230924 197.157 0.258945C196.45 0.258945 195.807 0.483109 195.229 0.847372C195.133 0.903413 195.036 0.959457 194.972 1.04352C194.201 1.5759 193.333 1.96819 192.369 2.16433C192.305 2.16433 192.24 2.19234 192.176 2.22036C192.433 2.44453 192.754 2.50057 193.59 2.41651C193.172 3.089 193.076 3.90158 193.172 4.74219Z" fill="black"/>
<path d="M228.624 5.62694C228.215 5.48005 227.888 5.55349 227.561 5.59021C226.825 5.70038 226.171 5.95743 225.598 6.36136C224.494 7.16923 223.309 7.75677 221.919 8.05054C221.878 8.05054 221.878 8.08725 221.837 8.08725C222.205 8.3443 222.491 8.41775 223.636 8.34431C223.105 9.33578 222.982 10.4007 223.064 11.5391C223.186 11.4656 223.227 11.3922 223.309 11.3555C223.881 10.8414 224.372 10.2905 224.74 9.66628C225.026 9.22562 225.189 8.78496 225.312 8.30758C225.435 7.72004 225.803 7.42628 226.457 7.463C226.866 7.463 227.274 7.57316 227.642 7.64661C227.724 7.64661 227.765 7.72004 227.847 7.75677C228.051 7.90365 228.256 8.08726 228.419 8.23415C228.705 8.45448 229.032 8.63808 229.359 8.89513C230.381 9.59283 230.749 10.0335 231.567 11.2453C231.608 11.0984 231.649 10.9882 231.649 10.9148C231.69 10.5109 231.649 10.1069 231.526 9.703C231.322 8.96857 231.036 8.27087 230.545 7.68333C230.259 7.2794 229.891 6.98562 229.4 6.80201C229.155 6.69185 228.91 6.58168 228.664 6.47152C228.583 6.4348 228.501 6.39808 228.378 6.32464C228.092 6.14103 228.092 6.03087 228.378 5.81054C228.46 5.7371 228.542 5.66366 228.624 5.62694Z" fill="black"/>
<path d="M238.197 45.7261C238.423 45.1508 238.423 44.68 238.31 44.2616C238.141 43.0062 237.689 41.8555 237.011 40.7571C236.616 40.1295 236.107 39.6587 235.373 39.2926C235.034 39.1357 234.695 38.9264 234.356 38.7695C234.187 38.7172 234.074 38.6126 233.961 38.508C233.735 38.2988 233.735 38.1419 233.961 37.9326C234.074 37.828 234.187 37.7757 234.356 37.6711C234.187 37.6188 234.13 37.5665 234.017 37.5665C233.396 37.5142 232.775 37.5665 232.153 37.7234C231.419 37.9326 230.741 38.1942 230.176 38.6126C228.651 39.711 226.957 40.4956 225.036 40.8617C224.98 40.8617 224.98 40.8617 224.867 40.914C225.658 41.4371 226.448 41.4894 227.409 41.2802C226.618 42.7447 226.392 44.2093 226.392 45.8307C226.561 45.7261 226.618 45.7261 226.674 45.6215C227.522 44.8892 228.256 44.1047 228.877 43.1632C229.273 42.5878 229.555 41.9601 229.668 41.2802C229.894 40.3387 230.515 40.0248 231.419 40.0772C231.927 40.0772 232.436 40.2864 232.944 40.391C233.057 40.391 233.17 40.4956 233.227 40.5479C233.622 40.914 234.017 41.2279 234.413 41.594C235.034 42.1171 235.712 42.5878 236.333 43.1109C237.067 43.7908 237.689 44.5754 238.141 45.4123C238.084 45.5692 238.084 45.5692 238.197 45.7261Z" fill="black"/>
<path d="M73.0001 57.3998C73.7907 57.9229 74.5813 57.9752 75.5413 57.766C74.6942 59.2305 74.5248 60.6951 74.5813 62.3166C74.6942 62.2119 74.8072 62.1596 74.8637 62.1073C75.8236 61.2704 76.6707 60.3812 77.2354 59.2828C77.4613 58.7598 77.6872 58.2367 77.8566 57.7137C78.0825 57.0337 78.4777 56.6676 79.2119 56.6153C79.8895 56.563 80.5672 56.7199 81.1883 56.9291C81.2448 56.9291 81.3577 57.0337 81.4142 57.086C81.6966 57.3476 81.9225 57.6091 82.2048 57.8183C82.4307 58.0275 82.713 58.1844 82.9389 58.3937C84.3507 59.4398 85.6495 60.5905 86.3836 62.2642C86.4401 62.1073 86.4965 62.055 86.4965 61.9504C86.6095 61.3227 86.553 60.7474 86.4401 60.1197C86.2142 59.0213 85.8189 58.0275 85.1413 57.086C84.746 56.5107 84.2942 56.0922 83.6166 55.7784C83.2777 55.6215 82.9389 55.4123 82.6001 55.2553C82.4871 55.203 82.3177 55.0984 82.2048 55.0461C81.866 54.7846 81.866 54.6277 82.2048 54.3661C82.3177 54.3138 82.4307 54.2092 82.5436 54.1569C82.3177 54 82.1483 54 81.9225 54C80.5672 54 79.3813 54.3661 78.3083 55.1507C77.2919 55.883 76.1625 56.5107 74.9201 56.8768C74.4119 57.0337 73.9036 57.1383 73.3389 57.2952C73.226 57.3475 73.1131 57.3475 73.0001 57.3998Z" fill="black"/>
<path d="M69.3838 84.055C69.5532 83.6889 69.5532 83.375 69.5532 83.0612C69.3838 81.5444 68.8756 80.1321 67.9155 78.9291C67.5202 78.406 67.0685 78.0399 66.5037 77.7784C66.1084 77.6215 65.7696 77.4122 65.3743 77.2553C65.2049 77.1507 65.0355 77.0461 64.9225 76.9415C64.6966 76.7323 64.6966 76.6277 64.9225 76.4184C65.0355 76.3138 65.1484 76.2092 65.3178 76.1046C64.866 75.9477 64.4143 76 64.019 76.0523C63.0025 76.2092 61.986 76.5754 61.1954 77.1507C59.7271 78.3014 58.0329 79.1383 56.1694 79.5568C56.1129 79.5568 56.0564 79.6091 56 79.6091C56.5082 79.9752 56.9035 80.0798 58.4847 79.9752C57.6941 81.3875 57.5812 82.9043 57.6376 84.5258C57.7506 84.4735 57.807 84.4212 57.8635 84.3688C58.88 83.4274 59.7271 82.4336 60.2918 81.2305C60.5177 80.7598 60.6306 80.289 60.7436 79.8183C60.913 79.1383 61.3083 78.7722 62.0425 78.7199C62.7201 78.6153 63.3978 78.7722 64.019 78.9814C64.0754 78.9814 64.1319 79.0337 64.1884 79.086C64.5837 79.3998 64.979 79.766 65.3743 80.0275C66.1649 80.6029 67.012 81.1782 67.7461 81.8582C68.3673 82.4335 68.8191 83.0612 69.2144 83.7412C69.2144 83.8458 69.2709 83.8981 69.3838 84.055Z" fill="black"/>
<path d="M166.265 32.3797C166.265 32.1705 166.322 32.0136 166.322 31.8043C166.378 30.6013 165.983 29.5029 165.418 28.4045C165.249 28.0383 165.023 27.6722 164.797 27.3584C164.402 26.783 163.894 26.4169 163.272 26.1031C162.877 25.9461 162.538 25.7369 162.199 25.58C162.03 25.5277 161.917 25.4231 161.804 25.3185C161.522 25.1093 161.522 24.9523 161.804 24.7431C161.917 24.6385 162.03 24.5862 162.199 24.4816C161.861 24.3247 161.578 24.3247 161.239 24.377C160.054 24.4816 158.924 24.9 157.964 25.6323C156.948 26.3646 155.875 27.0446 154.689 27.463C154.237 27.6199 153.785 27.7245 153.277 27.8814C153.108 27.9337 152.995 27.9337 152.769 28.0384C153.616 28.5614 154.407 28.6137 155.367 28.3522C154.576 29.8167 154.407 31.3336 154.519 32.9551C154.632 32.9027 154.689 32.8504 154.745 32.7981C155.931 31.6997 156.948 30.4967 157.456 28.9798C157.569 28.7183 157.625 28.4568 157.682 28.1953C157.851 27.5676 158.303 27.2015 158.981 27.1492C159.602 27.0969 160.279 27.2015 160.844 27.4107C160.957 27.4107 161.07 27.5153 161.127 27.5676C161.522 27.8814 161.861 28.143 162.199 28.4568C162.934 29.0322 163.724 29.5552 164.402 30.1829C165.136 30.7582 165.644 31.4905 166.096 32.2751C166.152 32.2751 166.209 32.3274 166.265 32.3797C166.209 32.432 166.265 32.3797 166.265 32.3797Z" fill="black"/>
<path d="M19.2547 86.2788C19.4258 86.1742 19.4829 86.1742 19.5399 86.1219C20.7948 85.0235 21.8216 83.7682 22.2209 82.199C22.392 81.6236 22.7913 81.3098 23.4758 81.2575C24.0462 81.2575 24.6166 81.3621 25.13 81.5713C25.1871 81.5713 25.2441 81.6236 25.3582 81.6759C25.7575 81.9898 26.1568 82.3559 26.5561 82.6697C27.1265 83.1405 27.6969 83.5589 28.2103 84.0297C28.8378 84.5527 29.2941 85.1804 29.6364 85.8604C29.6934 85.965 29.7504 86.0696 29.8645 86.2265C30.0927 85.8604 30.0357 85.4942 30.0357 85.1804C29.9216 83.9251 29.4652 82.7744 28.7237 81.6759C28.3814 81.2052 27.9821 80.8391 27.4117 80.5775C27.0124 80.4206 26.6702 80.2114 26.2709 80.0022C25.7575 79.6883 25.7575 79.5837 26.2709 79.2176C26.2709 79.2176 26.3279 79.1653 26.385 79.113C26.2709 78.9561 26.0427 79.0084 25.9286 79.0084C24.7878 79.0084 23.704 79.3222 22.7913 79.9499C22.5061 80.1591 22.1638 80.316 21.9357 80.5252C20.9089 81.2052 19.711 81.6236 18.5131 81.8852C18.342 81.8852 18.2279 81.9375 17.9998 81.9898C18.6843 82.4605 19.4258 82.4605 20.2244 82.3559C19.3688 83.5066 19.1977 84.8143 19.2547 86.2788Z" fill="black"/>
<path d="M123.043 51.7841C123.203 51.3945 123.163 51.1111 123.083 50.7923C122.923 50.0839 122.642 49.4109 122.201 48.8087C121.92 48.4545 121.64 48.1712 121.158 47.9941C120.918 47.8878 120.677 47.7815 120.437 47.6753C120.356 47.6399 120.276 47.6044 120.236 47.5336C120.076 47.3919 120.076 47.3211 120.236 47.1794C120.316 47.144 120.397 47.0731 120.477 47.0023C120.276 46.896 120.116 46.9314 119.915 46.9314C119.153 47.0023 118.472 47.2148 117.87 47.6399C117.67 47.7815 117.469 47.9232 117.269 48.0295C116.547 48.49 115.745 48.8087 114.903 48.9858C114.823 48.9858 114.743 49.0213 114.662 49.0567C114.662 49.0567 114.622 49.0567 114.582 49.0921C115.063 49.3755 115.585 49.3755 116.146 49.2338C115.665 50.1193 115.585 51.0048 115.625 51.9258C115.665 51.9258 115.745 51.8904 115.745 51.8904C116.627 51.1465 117.309 50.2964 117.59 49.2338C117.71 48.7025 118.111 48.49 118.712 48.49C118.913 48.49 119.113 48.5254 119.314 48.5608C119.554 48.5962 119.755 48.7025 119.915 48.8796C120.036 49.0213 120.196 49.1275 120.356 49.2338C120.797 49.5526 121.239 49.836 121.64 50.1547C122.161 50.5444 122.562 51.0403 122.883 51.5362C122.923 51.6424 122.963 51.7133 123.043 51.7841Z" fill="black"/>
</svg>
