<svg width="901" height="51" viewBox="0 0 901 51" fill="none" xmlns="http://www.w3.org/2000/svg">
<path d="M205.161 30H27.578H0C0 30 14.879 16.9719 27.578 17.8534C35.7304 18.4192 45.9102 24.9205 45.9102 24.9205C45.9102 24.9205 70.2643 1.53201 93.4146 0.0750989C119.84 -1.58792 151.121 24.9205 151.121 24.9205C151.121 24.9205 173.337 14.3418 186.989 17.8534C196.234 20.2314 205.161 30 205.161 30Z" fill="#F9CD7E"/>
<path d="M723.25 31.0366C704.88 31.7986 693.593 34.9862 678.394 45.3314C675.386 47.3787 671 51 671 51H900.456C900.456 51 893.12 47.1166 888.133 45.3314C876.868 41.299 869.629 38.9821 857.818 40.8951C852.139 41.8149 843.77 45.3314 843.77 45.3314C843.77 45.3314 817.803 35.1131 800.885 37.1981C790.554 38.4715 775.5 45.3314 775.5 45.3314C775.5 45.3314 744.386 30.1598 723.25 31.0366Z" fill="#F9CD7E"/>
</svg>
