<svg width="1612" height="70" viewBox="0 0 1612 70" fill="none" xmlns="http://www.w3.org/2000/svg">
<path d="M309 39H41.5361H0C0 39 22.4097 22.0635 41.5361 23.2094C53.8146 23.945 69.1469 32.3966 69.1469 32.3966C69.1469 32.3966 105.827 1.99162 140.695 0.0976285C180.495 -2.0643 227.608 32.3966 227.608 32.3966C227.608 32.3966 261.068 18.6444 281.629 23.2094C295.554 26.3008 309 39 309 39Z" fill="#F9CD7E"/>
<path d="M1611.06 70H1302C1302 70 1312.72 35.9503 1330.32 24.8244C1360.56 5.71017 1418.52 49.5634 1418.52 49.5634C1418.52 49.5634 1432.86 34.2717 1445.06 30.5609C1471 22.6662 1507.44 61.0366 1507.44 61.0366C1507.44 61.0366 1533.79 46.5327 1551.18 49.5634C1564.14 51.8207 1580.94 65.339 1580.94 65.339C1580.94 65.339 1588.51 59.3359 1594.21 59.2439C1602.01 59.118 1611.06 70 1611.06 70Z" fill="#F9CD7E"/>
</svg>
