<svg width="769" height="552" viewBox="0 0 769 552" fill="none" xmlns="http://www.w3.org/2000/svg">
<path d="M39 72.5L3 108.5V222.5L17.5 237L127.25 127.25M39 72.5L107.5 4L150 46.5L192.5 4L262.5 74M39 72.5L65.5 99L39.75 124.75M39.75 124.75L152 237L263.75 125.25M39.75 124.75L3 88V33L16.5 46.5L59 4L126.5 71.5M126.5 71.5L99 99L127.25 127.25M126.5 71.5L179.75 124.75M127.25 127.25L180.5 74M179.75 124.75L288 233L398.5 122.5M179.75 124.75L205.5 99L180.5 74M180.5 74L250.5 4L293 46.5L335.5 4L402.75 71.25M262.5 74L237.5 99L263.75 125.25M262.5 74L315.25 126.75M263.75 125.25L316.5 72.5M316.5 72.5L385 4L427.5 46.5L470 4L537.25 71.25M316.5 72.5L343 99L315.25 126.75M315.25 126.75L421.5 233L532.5 122M398.5 122.5L375 99L402.75 71.25M398.5 122.5L449.75 71.25M402.75 71.25L454 122.5M449.75 71.25L517 4L559.5 46.5L602 4L672 74M449.75 71.25L477.5 99L454 122.5M454 122.5L564.5 233L673.75 123.75M537.25 71.25L509.5 99L532.5 122M537.25 71.25L589.25 123.25M532.5 122L585.5 69M585.5 69L650.5 4L693 46.5L735.5 4L764.5 33L726.25 71.25M585.5 69L614.5 98L589.25 123.25M589.25 123.25L699 233L765 167L724.5 126.5M672 74L648 98L673.75 123.75M672 74L724.5 126.5M673.75 123.75L726.25 71.25M726.25 71.25L753 98L724.5 126.5" stroke="white" stroke-opacity="0.5" stroke-width="5"/>
<path d="M39 313.5L3 277.5V163.5L17.5 149L127.25 258.75M39 313.5L107.5 382L150 339.5L192.5 382L262.5 312M39 313.5L65.5 287L39.75 261.25M39.75 261.25L152 149L263.75 260.75M39.75 261.25L3 298V353L16.5 339.5L59 382L126.5 314.5M126.5 314.5L99 287L127.25 258.75M126.5 314.5L179.75 261.25M127.25 258.75L180.5 312M179.75 261.25L288 153L398.5 263.5M179.75 261.25L205.5 287L180.5 312M180.5 312L250.5 382L293 339.5L335.5 382L402.75 314.75M262.5 312L237.5 287L263.75 260.75M262.5 312L315.25 259.25M263.75 260.75L316.5 313.5M316.5 313.5L385 382L427.5 339.5L470 382L537.25 314.75M316.5 313.5L343 287L315.25 259.25M315.25 259.25L421.5 153L532.5 264M398.5 263.5L375 287L402.75 314.75M398.5 263.5L449.75 314.75M402.75 314.75L454 263.5M449.75 314.75L517 382L559.5 339.5L602 382L672 312M449.75 314.75L477.5 287L454 263.5M454 263.5L564.5 153L673.75 262.25M537.25 314.75L509.5 287L532.5 264M537.25 314.75L589.25 262.75M532.5 264L585.5 317M585.5 317L650.5 382L693 339.5L735.5 382L764.5 353L726.25 314.75M585.5 317L614.5 288L589.25 262.75M589.25 262.75L699 153L765 219L724.5 259.5M672 312L648 288L673.75 262.25M672 312L724.5 259.5M673.75 262.25L726.25 314.75M726.25 314.75L753 288L724.5 259.5" stroke="white" stroke-opacity="0.5" stroke-width="5"/>
<path d="M3 486.5L39 450.5M39 450.5L107.5 382L150 424.5L192.5 382L262.5 452M39 450.5L65.5 477L39.75 502.75M39.75 502.75L3 466V411L16.5 424.5L59 382L126.5 449.5M39.75 502.75L85 548L126.5 506.5M39.75 502.75L3 539.5M126.5 449.5L99 477L127.25 505.25L180.5 452M126.5 449.5L179.75 502.75M179.75 502.75L205.5 477L180.5 452M179.75 502.75L221.5 544.5L263.25 502.75M180.5 452L250.5 382L293 424.5L335.5 382L402.75 449.25M262.5 452L237.5 477L263.25 502.75M262.5 452L315.25 504.75M316.5 450.5L385 382L427.5 424.5L470 382L537.25 449.25M316.5 450.5L263.75 503.25L263.25 502.75M316.5 450.5L343 477L315.25 504.75M315.25 504.75L355 544.5L399 500.5M402.75 449.25L375 477L398.5 500.5L449.75 449.25M402.75 449.25L454 500.5M449.75 449.25L517 382L559.5 424.5L602 382L672 452M449.75 449.25L477.5 477L454 500.5M454 500.5L496.5 543L532.5 500M537.25 449.25L509.5 477L532.5 500M537.25 449.25L589.25 501.25M532.5 500L585.5 447M585.5 447L650.5 382L693 424.5L735.5 382L764.5 411L726.25 449.25M585.5 447L614.5 476L589.25 501.25M589.25 501.25L632.5 544.5L673.75 501.75M672 452L648 476L673.75 501.75M672 452L724.5 504.5M673.75 501.75L726.25 449.25M726.25 449.25L753 476L724.5 504.5M724.5 504.5L764.5 544.5" stroke="white" stroke-opacity="0.5" stroke-width="5"/>
<path d="M765.5 4H60H3V544.5H765.5V4Z" stroke="white" stroke-opacity="0.5" stroke-width="5"/>
</svg>
