<svg width="1132" height="596" viewBox="0 0 1132 596" fill="none" xmlns="http://www.w3.org/2000/svg">
<path d="M25 596V145C140.29 148.453 189.89 170.476 207.216 179.724C391.284 277.966 568.315 219.105 607.573 259.899C638.895 292.446 692.306 296.316 709.422 304.362C860.157 375.221 914.756 370.166 1132 401.052V596H25Z" fill="#47100B"/>
<path fill-rule="evenodd" clip-rule="evenodd" d="M25.8963 36.2671H29.8085L30.9067 27.4101H33.8573V11.6052L32.5875 11.3031V9.24171L43.9742 3.56027V1.72594C43.9742 0.776562 44.6723 0 45.5257 0C46.3791 0 47.0771 0.776319 47.0771 1.72594V3.56684L58.4639 9.24171V11.3031L57.1938 11.6052V27.4099H60.1447L61.2428 36.2668H65.1548L66.8365 41.9169V44.2074L61.5063 52.8014L66.1472 108.762C66.5662 109.024 66.9593 109.295 67.3193 109.541C68.9667 110.66 69.9276 111.22 71.0216 112.196C72.1155 113.171 73.343 114.562 75.3561 115.071C77.3694 115.58 80.1686 115.207 82.3004 115.275C84.4322 115.343 85.8964 115.852 86.9028 116.819C87.9093 117.786 88.4586 119.212 89.2821 121.044C90.1058 122.877 91.2041 125.116 92.8054 126.898C94.4069 128.679 96.5115 130.003 97.6555 131.912C98.7993 133.821 98.9824 136.315 99.3715 138.427C99.7604 140.54 100.355 142.271 101.293 144.571C102.231 146.872 103.512 149.743 104.405 153.265C105.297 156.788 105.8 160.962 105.823 163.939C105.846 166.917 105.388 168.699 104.816 169.92C104.245 171.142 103.558 171.803 97.1751 172.557C90.792 173.31 78.7127 174.155 69.1725 174.578C59.6324 175 52.6317 175 45.1278 175C37.6237 175 29.6165 175 23.5308 174.364C17.4453 173.727 13.2817 172.455 9.82722 171.615C6.37253 170.775 3.62727 170.368 2.11732 169.782C0.607376 169.197 0.332954 168.434 0.149864 167.288C-0.0330076 166.143 -0.124515 164.616 0.332993 162.503C0.7905 160.391 1.79725 157.693 2.39197 155.937C2.98668 154.181 3.16978 153.367 3.97053 152.476C4.77127 151.585 6.18967 150.618 7.19645 149.116C8.20301 147.614 8.79775 145.579 10.1705 143.823C11.5432 142.066 13.6937 140.59 15.99 138.278C18.2863 135.966 20.7283 132.817 21.9492 130.937C22.6999 129.782 22.9892 129.106 23.2575 128.615L29.5446 52.8014L24.2145 44.2074V41.9169L25.8963 36.2671Z" fill="#47100B"/>
</svg>
