<svg width="1717" height="328" viewBox="0 0 1717 328" fill="none" xmlns="http://www.w3.org/2000/svg">
<path d="M504.275 66.4429C389.548 85.4679 336.908 126.503 333.235 126.699L333.235 307L1715.82 327.663L1716.37 180.113C1716.37 180.113 1630.31 159.506 1531.91 151.774C1441.77 144.691 1436.58 155.457 1347.7 145.904C1263.95 136.903 1200.51 118.668 1117.54 108.453C969.036 90.1685 861.128 128.01 711.885 110.837C650.415 103.764 637.805 44.3001 504.275 66.4429Z" fill="#D64F0B"/>
<path d="M230 4.18319C206 -4.3172 66.7917 -5.66039 0 58.1833V306.683H802.5V196.683C760.322 150.957 753.983 134.106 722 139.184C690.017 144.261 659.907 158.696 631 139.184C611 125.683 463.753 16.6831 438.5 16.6831C413.247 16.6831 403.384 32.8619 353.5 37.6832C303.616 42.5045 254 12.6836 230 4.18319Z" fill="#BC4600"/>
</svg>
