<?xml version="1.0" standalone="no"?>
<!DOCTYPE svg PUBLIC "-//W3C//DTD SVG 20010904//EN"
 "http://www.w3.org/TR/2001/REC-SVG-20010904/DTD/svg10.dtd">
<svg version="1.0" xmlns="http://www.w3.org/2000/svg"
 width="1018.000000pt" height="1018.000000pt" viewBox="0 0 1018.000000 1018.000000"
 preserveAspectRatio="xMidYMid meet">
<metadata>
Created by potrace 1.14, written by Peter Selinger 2001-2017
</metadata>
<g transform="translate(0.000000,1018.000000) scale(0.100000,-0.100000)"
fill="#000000" stroke="none">
<path d="M5040 9228 c0 -3 40 -106 89 -229 49 -123 108 -273 131 -334 23 -60
46 -114 50 -118 4 -5 -16 -52 -45 -105 -197 -366 -285 -532 -285 -537 0 -6
198 3 285 12 28 3 392 7 811 10 830 5 778 8 1064 -52 36 -7 81 -16 100 -19 39
-6 57 -10 185 -35 83 -16 142 -39 315 -119 36 -17 175 -80 310 -140 135 -61
279 -126 320 -145 108 -50 150 -67 150 -60 0 3 -56 92 -124 197 -68 105 -155
240 -193 299 l-69 108 -240 195 c-131 108 -248 203 -259 212 -11 10 -54 44
-95 77 -41 33 -83 67 -92 75 -9 8 -48 31 -85 50 -37 19 -191 99 -341 177
l-272 143 -248 65 c-240 64 -365 97 -562 148 -53 14 -122 28 -155 32 -33 3
-71 8 -85 10 -14 2 -79 11 -145 20 -66 9 -133 18 -150 20 -16 2 -70 9 -120 15
-49 6 -101 13 -115 16 -57 9 -130 16 -130 12z"/>
<path d="M4390 9211 c0 -7 -9 -9 -25 -5 -51 13 -58 -1 -30 -55 31 -62 31 -76
1 -141 -38 -83 -25 -184 32 -246 40 -43 52 -67 40 -81 -19 -23 -76 -14 -150
24 -107 55 -214 50 -280 -12 -35 -32 -39 -32 -25 6 33 87 174 128 279 82 24
-11 62 -39 84 -61 41 -42 64 -53 64 -30 0 20 -91 99 -138 120 -100 43 -252 11
-296 -63 -24 -40 -30 -31 -15 22 43 142 230 186 330 76 34 -37 56 -28 39 17
-18 47 -12 106 15 152 17 28 24 53 21 70 -21 113 -181 124 -230 15 -35 -77 -1
-140 79 -146 42 -2 76 29 77 72 1 37 -8 52 -36 62 -21 8 -66 -5 -66 -20 0 -4
-3 -14 -6 -23 -9 -23 19 -20 34 4 17 27 42 15 42 -21 0 -27 -21 -47 -45 -44
-51 6 -71 34 -60 84 18 84 144 106 175 30 10 -24 8 -33 -14 -72 -15 -25 -27
-61 -28 -85 -1 -47 -4 -49 -36 -26 -30 21 -117 29 -168 15 -81 -22 -158 -119
-164 -206 -4 -63 0 -95 13 -95 9 0 12 -10 9 -31 -5 -31 -4 -32 24 -25 68 18
103 18 126 2 21 -15 21 -16 3 -15 -48 5 -73 -3 -103 -32 -84 -83 8 -221 141
-210 27 2 67 50 67 80 0 54 -55 98 -105 85 -27 -7 -40 -34 -30 -64 10 -30 39
-26 31 4 -8 31 5 39 37 27 45 -17 47 -83 4 -97 -68 -24 -154 43 -145 113 4 35
47 65 92 65 28 0 46 -9 82 -41 26 -23 53 -41 60 -41 17 0 17 0 -1 -36 -50
-102 -11 -219 87 -259 56 -22 183 -30 200 -11 10 11 18 11 46 -1 57 -24 67 -1
28 67 -27 48 -24 72 17 134 54 78 44 147 -29 224 -24 25 -44 51 -44 57 0 6 -7
20 -15 31 -19 25 -19 31 4 37 15 3 23 -3 32 -25 7 -17 33 -51 58 -77 45 -46
46 -49 49 -117 2 -57 -1 -75 -16 -95 -61 -77 -44 -183 35 -215 76 -32 159 13
170 92 6 52 -10 90 -49 114 -49 30 -97 23 -124 -18 -12 -18 -21 -40 -19 -50 2
-9 4 -23 4 -29 1 -7 12 -20 25 -28 53 -35 114 21 80 72 -19 31 -42 17 -25 -15
8 -15 7 -23 -3 -31 -13 -11 -45 -6 -47 8 0 3 -2 14 -4 23 -2 9 4 26 12 37 20
30 64 27 98 -6 23 -23 26 -34 22 -66 -7 -48 -30 -75 -73 -83 -38 -7 -87 17
-102 50 -14 32 -5 83 23 124 14 20 25 47 25 60 l0 23 30 -23 c80 -59 232 -2
292 108 36 67 44 184 12 184 -11 0 -14 5 -9 18 3 9 9 29 12 45 5 23 2 27 -16
27 -11 0 -21 -4 -21 -8 0 -14 -43 -29 -70 -25 -14 2 -45 13 -70 25 -88 41
-206 28 -269 -31 -16 -15 -46 -32 -67 -38 -38 -12 -39 -11 -14 5 44 30 98 93
120 140 59 126 24 211 -126 309 -17 12 -17 12 6 8 14 -2 49 -11 78 -20 62 -19
141 -88 143 -126 1 -13 2 -31 3 -39 4 -39 -18 -87 -51 -116 -47 -41 -38 -54
26 -41 45 10 57 8 120 -17 90 -37 118 -37 152 2 58 65 46 141 -29 179 -88 44
-178 -15 -149 -100 16 -49 79 -64 112 -27 15 16 17 26 9 48 -11 30 -54 45 -54
18 0 -9 7 -16 16 -16 24 0 12 -34 -13 -38 -26 -4 -53 31 -45 60 6 24 54 47 88
40 13 -2 35 -16 49 -30 30 -30 30 -63 2 -104 -23 -36 -57 -36 -129 -3 -29 14
-65 25 -80 25 l-26 0 16 32 c32 65 17 161 -33 214 -18 19 -89 60 -125 73 -52
18 -160 26 -160 12z m147 -127 c22 -22 53 -79 53 -100 0 -59 -32 -127 -87
-182 -45 -45 -57 -53 -60 -39 -3 9 5 32 16 50 49 77 63 112 64 156 0 46 -24
110 -60 161 -17 24 -16 24 22 -5 22 -16 45 -34 52 -41z m58 -394 c6 0 22 -11
36 -24 88 -81 216 -80 303 2 61 58 28 6 -38 -59 -105 -105 -271 -73 -343 65
-15 28 -14 29 9 23 12 -4 28 -7 33 -7z m-135 -50 c7 -13 7 -20 1 -20 -16 0
-149 -137 -166 -171 -9 -16 -19 -52 -22 -79 -8 -72 24 -129 107 -190 l24 -18
-44 5 c-66 7 -124 44 -143 91 -26 65 -13 128 42 196 17 21 31 43 31 47 0 13
-22 10 -50 -6 -36 -20 -42 -19 -84 18 l-37 34 48 -10 c76 -16 119 -3 172 52
71 73 102 86 121 51z m524 -17 c-21 -95 -56 -141 -139 -179 -54 -25 -100 -24
-142 3 -24 16 -59 71 -50 79 2 3 23 1 46 -5 85 -19 178 14 239 85 43 51 55 55
46 17z m-517 -40 c-37 -63 -80 -178 -85 -225 -4 -51 -2 -63 23 -100 15 -24 37
-53 48 -65 25 -28 18 -29 -30 -2 -76 42 -123 104 -123 161 0 65 19 98 101 170
14 13 31 33 38 46 6 12 16 22 22 22 6 0 8 -3 6 -7z"/>
<path d="M3996 9144 c-30 -30 -9 -84 33 -84 22 0 51 30 51 53 0 21 -27 47 -50
47 -10 0 -26 -7 -34 -16z"/>
<path d="M4855 9130 c-38 -42 10 -97 61 -69 28 14 32 50 8 73 -21 22 -47 20
-69 -4z"/>
<path d="M3528 9062 c-54 -32 -98 -62 -98 -68 0 -6 11 -21 25 -34 14 -13 25
-27 25 -31 0 -3 -25 -22 -55 -40 -30 -18 -54 -37 -53 -41 3 -8 457 -288 468
-288 4 0 6 17 5 38 -7 74 -28 399 -29 445 0 9 -1 17 -2 17 0 0 -27 -9 -59 -20
-32 -11 -62 -20 -67 -20 -5 0 -18 23 -30 50 -11 28 -23 50 -27 49 -3 0 -50
-26 -103 -57z"/>
<path d="M3215 8790 c-122 -26 -196 -122 -189 -244 l2 -51 -42 -20 c-35 -17
-47 -18 -75 -9 -44 14 -106 2 -137 -27 -64 -60 -57 -216 15 -343 l30 -54 -23
-21 c-17 -16 -30 -20 -48 -16 -112 28 -218 -10 -218 -77 0 -31 16 -68 34 -80
45 -30 149 17 197 89 l15 23 70 -54 c94 -73 217 -127 272 -120 6 1 24 2 38 3
34 1 102 69 110 109 11 52 76 50 104 -3 24 -45 19 -151 -9 -210 -30 -62 -123
-204 -134 -204 -5 -1 -23 10 -42 24 l-33 26 25 27 c39 42 55 80 48 113 -13 56
-89 79 -136 40 -20 -16 -24 -28 -22 -66 1 -25 10 -61 21 -80 l20 -33 -37 -25
c-128 -85 -255 -58 -281 60 l-8 32 43 -6 c98 -13 179 56 159 134 -17 64 -155
32 -203 -48 -18 -29 -18 -29 -36 -9 -17 19 -16 20 18 53 38 35 56 82 39 99
-18 18 -69 -18 -89 -62 l-18 -41 -56 4 c-131 11 -209 98 -209 235 0 52 5 74
26 110 43 73 135 100 229 67 50 -18 55 -18 55 -1 0 8 -9 17 -20 21 -59 19 -89
151 -55 241 47 123 169 176 278 120 37 -18 49 -21 57 -11 17 20 -82 65 -144
65 -121 0 -227 -109 -237 -245 -3 -39 11 -117 23 -132 8 -10 0 -13 -35 -13
-89 0 -165 -53 -197 -135 -18 -45 -13 -150 8 -198 42 -95 115 -145 224 -155
46 -4 61 -9 70 -26 6 -12 18 -26 27 -32 8 -7 16 -25 17 -40 7 -107 70 -168
172 -166 52 1 148 36 182 67 15 13 22 11 62 -18 l46 -32 -14 -34 c-28 -67 -8
-140 49 -170 51 -27 115 13 124 77 4 32 1 43 -20 65 -13 15 -28 27 -33 27 -5
0 -22 12 -37 25 -32 28 -33 24 37 129 63 93 85 144 93 216 11 107 -34 184
-108 184 -21 0 -39 2 -39 5 0 3 9 21 20 39 22 36 74 72 105 72 29 0 116 -43
227 -111 l97 -60 -15 -25 c-9 -13 -19 -24 -21 -24 -3 0 -23 14 -44 31 -46 36
-94 41 -133 13 -63 -47 -39 -145 39 -160 48 -9 82 2 116 36 l29 28 19 -32 c31
-50 43 -87 48 -148 4 -47 1 -64 -17 -93 -12 -19 -22 -35 -23 -35 -1 0 -23 -7
-49 -14 l-47 -15 9 24 c28 73 -33 182 -108 192 -33 4 -43 1 -65 -21 -26 -25
-29 -35 -29 -71 0 -43 5 -55 33 -83 17 -17 44 -36 60 -42 16 -7 26 -16 23 -21
-10 -17 -41 -9 -88 22 -65 43 -76 29 -38 -47 40 -81 47 -125 26 -166 -36 -70
-111 -112 -204 -112 -74 -1 -122 18 -170 66 -30 30 -32 35 -26 87 3 31 8 71
12 89 8 43 -14 43 -41 -1 -26 -40 -58 -56 -121 -58 -72 -2 -129 17 -173 59
-58 55 -73 131 -45 230 5 16 2 22 -9 22 -41 0 -47 -157 -8 -225 54 -97 208
-146 316 -101 l33 14 4 -54 c4 -43 11 -61 34 -85 63 -66 183 -95 270 -65 140
48 201 152 153 263 -24 56 -24 58 3 39 29 -20 67 -20 96 0 13 9 41 17 63 19
50 4 108 33 132 67 43 58 31 186 -25 274 -29 46 -29 49 -15 74 15 23 20 25 83
22 67 -4 149 12 161 31 11 19 4 69 -13 88 -40 45 -120 29 -189 -38 l-30 -29
-95 60 c-141 88 -214 120 -257 113 -43 -7 -98 -44 -112 -75 l-11 -22 -41 37
c-22 21 -47 51 -55 66 -14 26 -13 31 9 70 14 23 47 71 73 107 27 36 54 75 59
87 10 22 10 22 34 2 22 -18 23 -20 7 -38 -10 -11 -24 -40 -31 -65 -17 -55 -7
-92 27 -105 30 -11 78 -5 95 12 21 21 18 80 -5 129 -27 55 -27 59 1 79 36 26
81 37 139 35 61 -3 108 -26 132 -66 21 -36 20 -40 -4 -40 -88 0 -192 -110
-160 -170 12 -22 60 -27 104 -10 35 13 86 69 93 102 3 15 9 28 14 28 12 0 36
-40 44 -71 6 -24 2 -30 -34 -50 -23 -13 -44 -34 -50 -50 -11 -32 -6 -39 29
-39 27 0 71 39 83 73 4 9 17 18 32 18 14 1 31 2 38 3 6 1 28 -2 47 -7 89 -23
151 -116 151 -227 1 -75 -23 -125 -77 -162 -66 -46 -126 -45 -176 2 -37 35
-44 6 -9 -38 38 -48 46 -93 28 -154 -31 -102 -119 -166 -242 -176 -89 -7 -82
-28 8 -25 159 5 271 114 271 263 l0 65 38 2 c149 5 230 169 168 336 -19 49
-92 135 -117 138 -5 0 -17 3 -28 6 -11 2 -43 5 -72 5 -49 0 -52 2 -59 30 -3
17 -21 47 -39 67 -18 20 -37 52 -44 72 -15 46 -45 74 -101 94 -76 27 -189 7
-238 -41 -17 -18 -22 -17 -51 5 -22 17 -24 26 -22 74 3 68 -25 129 -66 145
-53 22 -94 0 -96 -50 -1 -56 21 -94 73 -128 36 -23 47 -36 43 -48 -6 -17 -42
-73 -53 -82 -3 -3 -27 -36 -53 -75 -70 -105 -69 -124 10 -206 55 -57 67 -99
42 -150 -56 -113 -207 -90 -383 57 l-46 38 22 23 c12 13 24 19 27 14 14 -21
79 -51 112 -51 43 0 77 32 85 81 9 51 -20 74 -83 65 -25 -3 -62 -15 -80 -26
-19 -11 -36 -20 -38 -20 -13 0 -57 87 -70 137 -27 103 -12 198 36 223 22 12
91 16 107 6 6 -4 8 -28 5 -59 -10 -102 33 -181 98 -179 85 2 86 113 3 200
l-42 43 26 12 c21 10 27 9 36 -7 24 -41 59 -76 75 -76 21 0 51 30 51 52 0 22
-42 57 -78 64 -34 7 -38 20 -33 99 9 146 187 228 312 146 62 -41 81 -79 80
-154 0 -34 -2 -71 -3 -81 -4 -29 21 -31 32 -2 14 39 65 60 140 59 107 -1 173
-42 211 -131 18 -41 25 -110 17 -166 -4 -25 19 -32 26 -8 9 27 10 114 1 143
-25 89 -86 156 -162 180 -60 19 -159 17 -201 -5 -29 -15 -29 -15 -27 12 7 131
-134 242 -270 212z m39 -192 c28 -12 46 -58 46 -116 l0 -34 -32 20 c-60 37
-87 94 -63 132 8 13 18 13 49 -2z m-123 -165 c9 -11 9 -17 0 -26 -10 -9 -17
-7 -32 12 -10 13 -19 27 -19 31 0 12 38 0 51 -17z m-134 -45 c45 -50 61 -91
54 -145 -2 -24 -59 -15 -77 12 -19 29 -29 94 -20 129 8 32 17 32 43 4z m404
-79 c25 -47 28 -78 11 -100 -13 -16 -24 -19 -45 -14 -35 9 -38 38 -12 103 16
37 30 41 46 11z m312 -25 c10 -10 -12 -57 -40 -86 -29 -30 -88 -47 -105 -30
-7 7 -4 21 12 47 30 48 111 90 133 69z m72 -164 c-3 -5 -16 -15 -28 -21 -21
-10 -21 -9 2 10 25 23 36 27 26 11z m-769 -57 c3 -59 -53 -80 -115 -42 -38 23
-34 33 25 55 55 19 89 15 90 -13z m906 -75 c27 -21 26 -50 -2 -65 -28 -14
-118 -17 -138 -5 -15 10 16 42 63 66 36 19 56 20 77 4z m-1175 -11 c8 -9 -47
-69 -80 -87 -50 -28 -89 -23 -101 13 -13 36 1 59 44 73 27 9 128 10 137 1z
m881 -115 c38 -32 36 -54 -9 -77 -39 -21 -75 -19 -99 5 -40 40 -13 100 44 100
19 0 44 -11 64 -28z m-864 -97 c-17 -26 -24 -31 -24 -16 0 10 28 41 36 41 2 0
-3 -11 -12 -25z m189 -70 c-4 -52 -61 -83 -129 -71 l-36 7 18 27 c31 47 73 72
119 69 27 -2 30 -5 28 -32z m232 -11 c10 -10 13 -24 9 -38 -9 -32 -47 -86 -60
-86 -12 0 -44 69 -44 94 0 40 64 60 95 30z m373 -44 c45 -42 63 -123 35 -151
-27 -27 -146 57 -138 98 2 10 4 23 4 30 2 20 31 43 55 43 12 0 32 -9 44 -20z
m-215 -284 c12 -17 -1 -67 -21 -82 -24 -19 -49 -17 -72 6 -27 27 -35 65 -21
111 l12 39 47 -32 c26 -17 50 -36 55 -42z"/>
<path d="M4866 8334 c-21 -21 -20 -47 2 -67 23 -21 46 -22 66 -1 31 30 9 84
-34 84 -10 0 -26 -7 -34 -16z"/>
<path d="M4006 8274 c-31 -30 -9 -84 34 -84 23 0 50 26 50 48 -1 45 -53 68
-84 36z"/>
<path d="M2085 8155 c-82 -59 -169 -118 -192 -133 -40 -25 -50 -43 -58 -102
-2 -14 -15 -88 -29 -165 -36 -196 -35 -195 -28 -196 4 -1 159 -2 344 -3 333
-1 338 -1 332 19 -13 45 -92 293 -153 483 l-66 203 -150 -106z"/>
<path d="M2109 7512 c-70 -36 -93 -116 -63 -221 17 -60 85 -200 145 -299 21
-35 39 -66 39 -68 0 -2 32 -52 72 -110 76 -113 111 -145 131 -125 8 8 8 14 -1
23 -7 7 -12 16 -12 21 0 5 8 0 18 -12 21 -25 41 -16 44 22 2 18 6 23 14 16 22
-18 42 3 140 147 143 210 155 230 161 273 10 73 -42 127 -109 112 -54 -12 -77
-29 -110 -79 -17 -26 -27 -38 -24 -27 26 73 26 174 1 212 -30 46 -99 56 -153
23 -69 -42 -100 -190 -76 -366 3 -27 4 -47 1 -44 -10 10 -24 131 -31 272 -4
77 -26 159 -49 188 -39 48 -93 65 -138 42z m424 -417 c-3 -9 -8 -14 -10 -11
-3 3 -2 9 2 15 9 16 15 13 8 -4z m-23 -81 c-15 -72 -18 -96 -19 -127 -1 -16
-5 -26 -9 -23 -10 6 3 126 19 174 16 48 21 34 9 -24z m-125 -169 c41 -102 41
-125 0 -33 -34 76 -55 144 -54 172 1 12 5 6 9 -15 5 -19 25 -75 45 -124z"/>
<path d="M1661 7469 c-43 -41 -25 -163 37 -253 22 -32 94 -107 166 -171 25
-23 166 -135 241 -192 44 -33 91 -71 105 -84 14 -13 41 -36 59 -51 18 -16 30
-28 26 -28 -4 0 -40 27 -81 61 -109 89 -318 227 -403 267 -175 81 -320 4 -255
-134 19 -40 113 -91 184 -99 25 -3 74 -10 110 -15 36 -5 68 -10 73 -10 4 0 7
-5 7 -11 0 -5 -4 -8 -9 -4 -14 8 -160 9 -208 1 -41 -7 -112 -62 -114 -89 -8
-85 0 -106 52 -132 33 -18 114 -23 174 -11 l40 7 -53 -26 c-42 -22 -58 -37
-76 -74 -32 -62 -19 -107 38 -135 53 -26 96 -14 233 65 58 34 131 75 162 92
31 16 68 38 82 48 26 18 35 48 15 50 -6 1 5 4 24 8 29 5 35 10 33 29 -2 13 1
21 7 17 6 -3 15 -3 21 0 11 8 -12 51 -39 73 -9 6 -12 12 -8 12 5 0 21 -11 37
-25 32 -26 62 -24 51 3 -3 9 -28 49 -56 87 -70 98 -239 353 -315 475 -77 124
-147 197 -221 233 -75 36 -113 40 -139 16z m428 -755 c71 -24 195 -86 206
-104 2 -4 -41 15 -98 43 -56 28 -138 62 -182 74 -44 13 -62 20 -40 17 22 -3
73 -17 114 -30z m68 -151 c-3 -5 -32 -10 -65 -11 -32 -1 -80 -6 -106 -11 -54
-10 -52 -1 2 15 45 13 176 18 169 7z m28 -3 c3 -5 1 -10 -4 -10 -6 0 -11 5
-11 10 0 6 2 10 4 10 3 0 8 -4 11 -10z"/>
<path d="M1347 7218 c-14 -24 -61 -108 -105 -188 -43 -80 -91 -165 -104 -190
-14 -25 -52 -94 -85 -155 -66 -121 -89 -163 -170 -308 -30 -54 -53 -99 -51
-101 1 -1 65 -30 141 -64 l138 -62 128 0 c108 0 140 4 212 26 46 14 92 27 103
29 10 3 21 6 23 9 5 5 -4 54 -92 484 -30 151 -57 288 -60 305 -3 18 -8 39 -10
47 -2 8 -6 28 -9 44 -3 16 -11 55 -17 85 -7 31 -12 62 -12 69 0 19 -4 15 -30
-30z"/>
<path d="M3638 7075 c-2 -2 -21 -6 -43 -9 -105 -13 -291 -62 -465 -123 -220
-77 -476 -277 -682 -534 -167 -208 -250 -351 -384 -668 -103 -241 -150 -336
-221 -444 l-45 -68 -32 28 c-17 15 -34 34 -39 41 -12 19 -64 43 -100 45 -19 2
-57 21 -97 50 -80 59 -155 87 -238 91 -186 8 -295 -54 -336 -193 -9 -30 -23
-65 -31 -77 -23 -36 -44 -127 -38 -170 7 -60 35 -107 79 -131 109 -60 224 -14
240 97 3 25 18 60 31 78 33 44 43 136 19 182 -9 18 -16 34 -16 35 0 4 82 -14
100 -22 8 -3 18 -7 22 -7 21 -3 142 -93 165 -123 27 -35 86 -69 102 -58 5 2
31 -35 59 -83 86 -148 185 -267 278 -334 l42 -30 4 -116 c4 -106 7 -124 35
-182 31 -66 43 -81 103 -134 32 -28 158 -106 171 -106 7 0 2 87 -6 109 -8 20
-3 14 70 -84 172 -229 436 -426 720 -538 189 -75 344 -99 388 -60 32 29 49 82
47 148 -1 33 -3 92 -4 130 -4 92 37 277 84 380 132 293 205 481 215 556 22
147 -11 217 -133 278 -57 28 -175 65 -242 75 -113 16 -145 19 -245 20 -140 3
-202 -9 -401 -77 -150 -51 -308 -98 -379 -112 -127 -25 -278 -25 -358 0 -63
20 -61 29 8 39 22 3 74 12 115 20 41 8 93 17 115 20 22 4 67 11 100 16 33 5
78 12 100 15 22 3 51 8 65 10 14 3 48 7 75 10 148 18 348 59 460 96 49 17 152
62 230 102 114 59 153 84 207 138 128 125 166 265 107 389 -66 137 -78 237
-38 331 21 49 48 95 74 125 6 6 30 35 54 64 25 29 50 58 56 64 6 6 41 48 77
92 192 238 227 408 107 524 -61 59 -128 83 -245 85 -57 2 -104 1 -106 0z
m-2276 -1630 c42 -9 101 -39 156 -78 46 -33 50 -44 27 -61 -9 -6 -21 -28 -28
-48 l-13 -36 -59 39 c-78 51 -143 72 -229 72 -93 1 -147 -8 -196 -33 l-40 -20
11 27 c17 46 58 92 99 113 66 34 182 44 272 25z m-133 -165 c8 -69 5 -150 -6
-161 -10 -10 -16 -7 -32 12 -24 30 -35 21 -21 -16 6 -16 7 -32 3 -36 -11 -11
-62 -14 -100 -5 -34 8 -92 66 -94 94 -1 9 -2 24 -3 32 -6 55 97 106 215 106
30 0 35 -4 38 -26z m-249 -177 c29 -40 87 -66 146 -65 59 0 62 -3 43 -56 -13
-39 -76 -72 -122 -65 -119 18 -161 116 -110 253 4 11 9 6 17 -15 6 -17 18 -40
26 -52z"/>
<path d="M1965 6250 c-51 -19 -73 -81 -48 -132 23 -47 79 -65 125 -42 34 18
48 43 48 87 0 35 -36 86 -62 88 -7 0 -20 2 -28 3 -8 2 -24 0 -35 -4z"/>
<path d="M1460 6016 l0 -75 -57 -21 c-31 -12 -60 -23 -65 -26 -6 -4 109 -247
130 -274 2 -3 26 19 53 48 28 28 54 52 59 52 5 0 36 -16 70 -36 33 -20 64 -34
67 -30 4 3 48 103 99 221 l92 215 -224 0 -224 0 0 -74z"/>
<path d="M1467 4513 c-17 -29 -137 -261 -137 -266 0 -4 6 -7 14 -7 7 0 36 -10
65 -21 l51 -22 0 -73 0 -74 224 0 224 0 -47 113 c-27 61 -57 132 -68 157 -11
25 -33 75 -48 111 l-28 67 -64 -39 c-35 -22 -67 -39 -70 -39 -4 0 -31 23 -59
51 -28 28 -54 47 -57 42z"/>
<path d="M1962 4065 c-91 -39 -65 -177 33 -177 81 0 126 97 73 155 -30 32 -65
39 -106 22z"/>
<path d="M1060 3967 c-25 -12 -86 -40 -135 -61 -50 -22 -91 -41 -93 -42 -2 -1
33 -69 78 -151 46 -81 95 -170 110 -198 15 -27 92 -167 171 -310 78 -143 150
-275 160 -294 14 -30 17 -32 22 -15 5 15 52 240 73 349 2 11 13 65 24 120 25
123 29 143 35 175 3 14 7 34 9 45 34 160 67 337 65 339 -2 2 -50 17 -106 35
-92 28 -113 31 -235 31 -117 -1 -139 -3 -178 -23z"/>
<path d="M1763 3851 c-79 -49 -47 -162 59 -212 l43 -20 -35 6 c-103 17 -172 7
-210 -30 -19 -20 -24 -35 -24 -70 3 -91 71 -138 204 -138 76 1 167 10 182 19
4 3 8 1 8 -4 0 -9 -93 -28 -180 -38 -142 -15 -228 -53 -255 -114 -49 -109 51
-190 187 -154 74 19 217 101 353 203 207 154 287 233 251 247 -8 3 -36 -9 -63
-27 -52 -36 -189 -99 -213 -98 -8 0 -4 5 10 11 77 32 229 110 240 123 17 21 4
35 -33 35 -22 0 -28 3 -18 9 26 17 -8 50 -112 106 -56 30 -129 71 -162 90
-129 75 -181 88 -232 56z m276 -258 c42 -4 84 -7 94 -7 9 1 17 -3 17 -8 0 -20
-198 5 -219 28 -3 4 3 4 13 0 10 -3 53 -10 95 -13z m-4 -183 c-27 -12 -43 -12
-25 0 8 5 22 9 30 9 10 0 8 -3 -5 -9z"/>
<path d="M2298 3448 c-40 -34 -100 -85 -133 -113 -33 -28 -105 -86 -160 -127
-160 -120 -277 -232 -322 -308 -57 -98 -61 -237 -6 -241 75 -6 151 29 228 107
28 28 82 100 120 160 127 202 177 278 270 409 50 72 94 138 98 147 13 37 -26
23 -95 -34z"/>
<path d="M2384 3437 c-68 -71 -266 -402 -318 -531 -50 -125 -43 -216 22 -266
48 -38 131 -18 165 39 25 42 43 130 46 221 2 47 7 105 11 130 6 40 7 37 7 -30
0 -160 26 -244 86 -280 53 -33 122 -22 151 22 18 28 23 93 12 163 l-8 50 30
-41 c82 -113 227 -77 208 51 -7 43 -24 72 -171 285 -96 139 -99 143 -126 135
-14 -5 -20 -3 -18 7 5 41 -29 55 -51 21 -10 -16 -11 -16 -5 2 11 34 10 39 -5
41 -8 2 -25 -7 -36 -19z m15 -103 c-30 -70 -56 -154 -64 -208 -4 -25 -11 -46
-15 -46 -13 0 38 195 66 253 34 68 43 69 13 1z m99 -131 c14 -89 21 -125 28
-143 3 -9 2 -11 -4 -5 -10 11 -34 88 -39 125 -9 71 -10 90 -4 90 4 0 12 -30
19 -67z"/>
<path d="M3161 3019 c-91 -27 -151 -91 -151 -163 l0 -45 -37 15 c-108 46 -267
-8 -319 -108 -34 -65 -25 -218 12 -218 10 0 14 6 10 18 -13 45 -18 96 -12 137
9 58 72 125 135 144 98 29 198 6 221 -50 7 -16 20 -29 30 -29 16 0 16 4 4 52
-23 88 -19 122 20 162 106 106 317 71 373 -61 17 -43 11 -77 -29 -157 -38 -75
-27 -92 33 -50 42 29 84 41 93 26 2 -4 -14 -18 -38 -30 -67 -36 -96 -99 -71
-157 36 -88 140 -67 189 38 16 34 16 92 1 117 -8 13 59 -6 87 -24 38 -25 52
-67 44 -137 -5 -57 -48 -159 -66 -159 -4 0 -13 7 -21 16 -35 42 -99 55 -149
29 -67 -34 -68 -119 -3 -153 39 -21 79 -14 125 22 l44 33 16 -28 17 -28 -52
-33 c-29 -18 -61 -37 -72 -43 -11 -6 -38 -23 -61 -37 -22 -14 -63 -34 -91 -44
-49 -17 -54 -17 -86 -2 -37 18 -94 84 -83 95 4 4 23 8 41 9 44 1 70 24 91 80
35 92 2 205 -102 351 -24 34 -44 65 -44 70 0 4 25 25 55 46 75 52 85 102 31
160 -80 86 -193 -40 -142 -158 12 -29 11 -31 -28 -61 l-40 -31 -78 40 c-64 34
-87 41 -133 40 -93 0 -163 -66 -169 -159 -2 -20 -14 -46 -33 -67 -26 -30 -38
-35 -90 -40 -137 -13 -236 -119 -235 -252 0 -143 79 -234 203 -235 l47 0 -15
-42 c-40 -116 5 -247 109 -315 59 -39 151 -42 221 -7 38 20 46 28 37 39 -9 11
-19 9 -56 -12 -131 -73 -294 42 -294 206 0 69 29 136 65 153 14 6 25 15 25 19
0 16 -18 17 -56 4 -140 -50 -254 31 -254 180 0 136 97 235 231 235 31 0 38 -4
43 -25 8 -32 65 -87 85 -83 9 2 17 16 19 31 3 23 -5 37 -36 67 -38 35 -40 39
-25 59 15 22 15 22 36 -11 21 -31 117 -88 141 -84 38 7 56 20 58 39 0 12 2 29
3 37 2 23 -33 69 -68 86 -22 12 -46 15 -84 11 l-53 -6 6 27 c17 70 85 125 142
116 68 -11 89 -18 133 -46 l48 -29 -21 -35 c-30 -52 -30 -120 1 -145 45 -37
118 -17 135 37 8 27 -7 68 -39 106 -14 16 -25 33 -25 38 0 12 63 50 72 44 14
-9 104 -147 120 -184 34 -78 38 -93 38 -130 0 -50 -27 -117 -51 -131 -30 -16
-66 -1 -72 30 -13 65 -92 121 -162 115 -80 -6 -164 -46 -269 -128 l-59 -46
-16 23 c-37 53 -82 85 -137 97 -33 8 -40 5 -65 -20 -37 -36 -40 -89 -7 -120
12 -11 24 -20 27 -20 3 -1 26 -5 51 -10 26 -5 65 -5 94 1 45 8 51 7 74 -17 15
-15 22 -28 16 -32 -20 -14 -54 -84 -70 -145 -19 -74 -14 -173 12 -217 29 -49
109 -67 178 -40 15 5 26 6 26 0 0 -5 15 -14 34 -21 33 -12 33 -12 33 -78 0
-102 50 -180 141 -218 41 -17 136 -19 177 -3 79 30 143 119 140 193 l-2 34 29
-14 c30 -16 134 -21 181 -11 77 18 145 81 173 160 23 65 16 194 -10 185 -7 -2
-10 -29 -7 -76 2 -62 -1 -79 -24 -124 -15 -30 -42 -63 -63 -78 -92 -64 -242
-57 -278 12 -20 40 -42 36 -35 -5 8 -43 6 -108 -6 -140 -24 -69 -99 -119 -178
-118 -123 1 -212 87 -208 200 2 66 4 72 19 72 32 0 84 33 90 57 7 27 -19 63
-46 63 -18 0 -51 -32 -69 -67 -12 -24 -27 -28 -50 -14 -11 7 -6 19 27 56 44
51 67 121 52 161 -10 26 -65 46 -92 33 -9 -5 -27 -24 -40 -41 -19 -28 -23 -45
-23 -113 l0 -79 -30 -6 c-44 -9 -92 7 -112 36 -23 35 -26 140 -7 206 14 46 58
128 69 128 2 0 19 -9 37 -19 18 -11 56 -23 83 -26 43 -6 53 -4 69 14 37 41 -8
131 -66 131 -29 0 -78 -19 -110 -42 -15 -11 -21 -9 -39 8 l-21 21 59 47 c84
67 188 117 249 118 87 3 141 -55 135 -145 0 -9 -26 -44 -56 -77 -70 -76 -74
-106 -24 -178 16 -23 29 -47 29 -51 0 -5 4 -11 8 -13 10 -4 92 -119 92 -129 0
-4 -22 -21 -49 -38 -115 -74 -96 -227 22 -177 44 18 67 67 67 141 0 47 4 61
22 76 11 11 22 19 24 19 1 0 25 -14 52 -31 115 -71 279 -35 313 68 6 21 26 54
44 74 18 20 36 51 40 67 6 28 10 31 43 29 150 -7 252 101 253 269 1 76 -19
122 -73 168 -40 35 -116 63 -142 53 -12 -5 -14 4 -11 46 9 150 -101 267 -266
283 -45 4 -69 3 -73 -5 -9 -14 4 -18 73 -26 117 -12 199 -75 227 -172 19 -65
12 -105 -27 -156 -40 -50 -28 -64 24 -26 34 25 48 29 79 25 56 -8 95 -32 128
-78 27 -36 30 -49 30 -112 0 -79 -28 -153 -71 -193 -25 -23 -94 -51 -116 -47
-7 1 -27 2 -43 3 -19 1 -33 7 -37 19 -12 34 -56 72 -84 72 -15 0 -30 -4 -34
-9 -11 -18 18 -59 56 -80 44 -25 48 -42 19 -88 -24 -41 -37 -42 -45 -4 -7 35
-56 88 -91 101 -36 14 -77 12 -99 -4 -17 -12 -18 -18 -7 -53 16 -54 66 -99
127 -115 62 -15 59 -12 44 -40 -39 -74 -152 -100 -243 -55 -64 31 -66 35 -38
88 28 54 31 114 8 137 -21 21 -92 21 -113 -1 -27 -27 -14 -114 24 -159 13 -14
11 -19 -9 -37 -21 -21 -23 -21 -29 -3 -4 11 -34 55 -67 98 -84 112 -93 132
-77 169 7 17 29 45 50 63 l38 33 35 -35 c41 -42 91 -60 136 -52 27 5 136 63
281 151 31 18 31 18 60 -10 43 -40 110 -68 144 -60 59 13 86 78 47 114 -27 26
-129 39 -175 23 -28 -10 -32 -8 -52 20 -18 25 -20 34 -10 47 37 50 65 129 69
195 3 62 1 75 -20 106 -26 38 -74 66 -128 73 -19 2 -51 12 -71 22 -39 19 -109
14 -109 -7 0 -6 -3 -9 -6 -6 -3 4 1 19 9 35 39 77 27 152 -33 212 -66 65 -182
95 -269 70z m166 -161 c23 -21 29 -53 15 -74 -4 -6 -28 -25 -54 -42 l-46 -32
-11 32 c-17 49 -13 83 14 112 29 32 51 33 82 4z m274 -221 c32 -70 -61 -187
-117 -149 -17 11 -33 46 -30 65 4 29 46 78 79 92 45 20 56 18 68 -8z m-415
-124 c17 -38 10 -61 -21 -69 -67 -17 -91 28 -55 101 l23 48 19 -24 c11 -13 26
-38 34 -56z m-255 -19 c10 -11 20 -31 23 -47 7 -40 -19 -50 -72 -27 -47 21
-63 35 -80 67 -10 18 -9 22 6 27 34 10 104 -2 123 -20z m-163 -122 c20 -30 11
-28 -19 4 -13 15 -18 25 -10 22 8 -2 21 -14 29 -26z m873 -28 c11 -9 19 -23
19 -29 0 -18 -72 -65 -100 -65 -65 0 -81 90 -20 114 25 9 81 -2 101 -20z
m-972 -95 c20 -11 46 -34 59 -52 l22 -32 -36 -6 c-85 -14 -154 12 -154 59 0
55 45 68 109 31z m1266 -39 c11 -9 11 -17 3 -35 -20 -45 -75 -41 -137 10 -25
22 -29 30 -19 37 18 12 135 3 153 -12z m-936 -84 c7 -8 13 -27 14 -43 3 -36
-27 -42 -89 -18 -58 22 -61 31 -22 55 39 23 81 26 97 6z m787 -107 c4 -8 1 -8
-14 0 -12 6 -24 16 -28 22 -4 8 -1 8 14 0 12 -6 24 -16 28 -22z m-118 -71 c21
-19 52 -75 52 -93 0 -13 -48 -3 -84 18 -43 24 -82 79 -70 98 10 17 73 3 102
-23z m-252 -23 c10 -16 10 -27 -1 -59 -26 -75 -46 -73 -70 7 -12 40 -12 49 0
60 19 20 55 16 71 -8z m-363 -29 c12 -31 -19 -109 -58 -146 -22 -21 -28 -22
-36 -10 -15 23 -7 108 13 140 13 22 25 30 47 30 16 0 31 -6 34 -14z m82 -177
c0 -13 -45 -42 -54 -34 -2 2 4 16 13 30 18 27 41 29 41 4z m165 -67 c0 -57
-19 -99 -50 -112 -74 -31 -76 69 -2 121 43 30 52 28 52 -9z"/>
<path d="M8490 2777 c-14 -6 -68 -31 -120 -54 -52 -24 -104 -48 -115 -53 -11
-4 -55 -24 -98 -44 -43 -20 -79 -36 -82 -36 -2 0 -51 -22 -110 -50 -59 -27
-108 -50 -110 -50 -2 0 -46 -20 -99 -45 -53 -25 -98 -45 -100 -45 -2 0 -35
-14 -72 -32 -38 -18 -78 -34 -89 -36 -11 -1 -76 -14 -145 -27 -69 -13 -138
-27 -155 -30 -50 -8 -87 -15 -160 -30 -38 -8 -88 -18 -110 -22 -52 -10 -1458
-10 -1635 0 -74 4 -174 10 -222 13 -49 3 -88 3 -88 0 0 -7 45 -93 123 -236 69
-126 136 -251 174 -325 l35 -71 -136 -344 c-75 -189 -134 -345 -132 -348 4 -4
60 3 206 23 14 2 49 7 79 10 30 4 62 8 71 10 15 3 38 6 145 19 42 6 125 17
155 22 14 2 52 7 85 10 66 7 181 36 829 208 134 36 252 89 471 211 22 12 108
57 190 100 128 67 270 163 351 240 11 10 131 108 383 312 100 81 135 116 171
173 25 38 112 174 193 301 82 127 147 232 145 234 -2 1 -14 -2 -28 -8z"/>
<path d="M1775 2555 c3 -16 8 -41 11 -55 8 -50 16 -96 20 -120 3 -14 9 -47 14
-75 5 -27 12 -63 15 -80 12 -78 11 -76 208 -213 l192 -132 51 157 c47 145 154
481 168 528 6 20 1 20 -340 20 l-345 0 6 -30z"/>
<path d="M4340 2000 c-51 -9 -108 -39 -130 -68 -42 -53 -48 -155 -13 -208 15
-23 10 -49 -7 -39 -5 3 -30 -13 -54 -36 -36 -32 -53 -41 -82 -41 -56 0 -89 30
-88 79 1 85 113 139 163 79 17 -21 7 -62 -20 -76 -31 -17 -51 -5 -43 25 4 18
2 25 -9 25 -29 0 -36 -50 -10 -75 37 -37 123 12 123 70 0 36 -38 84 -67 86
-66 6 -115 -18 -150 -71 -55 -80 -5 -169 96 -172 30 -1 30 -2 10 -16 -20 -14
-57 -13 -122 4 -27 6 -28 5 -25 -22 2 -16 -3 -34 -11 -40 -16 -12 -17 -75 -2
-132 15 -54 49 -101 100 -137 38 -27 51 -30 114 -30 49 0 83 6 106 18 19 9 35
17 37 17 1 0 2 -15 2 -34 0 -19 12 -60 26 -90 22 -46 24 -59 15 -79 -33 -72
-156 -48 -174 34 -9 40 2 69 31 79 45 17 90 -17 77 -57 -6 -18 -42 -16 -49 2
-8 19 -33 20 -30 1 1 -8 7 -21 14 -29 35 -42 93 -16 94 42 2 49 -40 84 -91 76
-54 -8 -76 -36 -75 -94 0 -30 7 -57 20 -74 58 -79 194 -67 216 20 8 31 2 52
-28 103 -14 25 -15 92 0 153 9 36 -9 35 -49 -4 -43 -43 -83 -57 -148 -56 -92
3 -167 72 -182 167 -3 19 -2 28 1 20 15 -35 71 -81 118 -96 108 -36 203 -13
291 69 37 36 46 50 37 59 -8 8 -21 1 -54 -31 -60 -60 -107 -82 -179 -82 -95
-1 -173 47 -194 119 -6 20 -4 20 27 -8 71 -66 218 -74 288 -16 31 26 94 43
123 33 33 -11 35 -36 4 -68 -76 -78 -95 -182 -51 -274 30 -63 30 -80 -1 -136
-13 -26 -21 -49 -18 -53 11 -10 48 -7 61 6 9 9 12 8 12 -5 0 -25 74 -22 152 4
92 32 149 75 170 128 17 44 16 109 -3 150 l-17 39 39 6 c22 4 56 15 77 26 57
31 98 27 122 -12 11 -18 20 -40 20 -48 -1 -56 -71 -98 -127 -75 -16 7 -33 22
-35 33 -7 26 17 62 42 62 26 0 36 -21 17 -35 -10 -7 -17 -17 -17 -24 0 -16 26
-14 44 5 47 46 -22 107 -84 74 -10 -5 -23 -23 -29 -40 -26 -75 50 -132 139
-105 86 26 104 130 35 195 -31 30 -62 28 -146 -6 -63 -25 -75 -27 -120 -17
-62 12 -73 0 -32 -36 17 -14 36 -37 43 -50 18 -35 16 -115 -3 -145 -33 -50
-122 -98 -202 -110 -26 -4 -28 -3 -11 7 59 37 118 92 136 127 48 94 -9 232
-135 324 -18 14 -16 14 20 3 22 -6 44 -17 48 -24 4 -7 28 -24 52 -39 66 -38
138 -40 234 -5 93 34 89 34 127 10 17 -10 36 -19 43 -19 14 0 15 46 1 55 -15
10 -12 35 5 35 16 0 19 17 17 89 -6 162 -223 288 -334 193 -16 -14 -18 -13
-18 9 0 14 -8 36 -17 49 l-16 25 24 -22 c31 -28 74 -29 117 -3 36 22 52 54 52
106 0 26 -9 43 -38 72 -46 46 -98 54 -150 22 -63 -39 -74 -116 -26 -197 21
-37 24 -52 21 -111 -3 -65 -5 -69 -49 -114 -25 -26 -51 -61 -58 -77 -13 -33
-18 -35 -37 -23 -17 11 12 68 62 123 74 82 83 169 24 233 -36 38 -40 71 -13
123 37 73 30 91 -25 72 -21 -7 -36 -8 -44 -1 -13 11 -94 12 -147 2z m35 -43
c-99 -74 -126 -155 -86 -258 9 -25 137 -160 167 -177 12 -7 12 -11 0 -27 -12
-17 -17 -18 -42 -7 -15 7 -45 33 -65 56 -49 55 -108 74 -182 59 l-50 -10 39
33 c45 39 46 40 85 17 22 -13 31 -15 41 -5 9 9 6 18 -14 39 -44 48 -60 81 -61
130 -3 91 40 144 135 162 64 13 66 12 33 -12z m56 -37 c-66 -84 -67 -146 -2
-283 22 -45 38 -84 35 -86 -2 -2 -14 9 -26 25 -23 29 -31 37 -85 86 -36 32
-58 102 -49 154 8 41 61 102 116 133 53 30 54 26 11 -29z m330 14 c25 -23 35
-79 19 -109 -15 -27 -67 -56 -87 -48 -19 8 -44 59 -37 77 9 23 37 29 51 10 10
-13 10 -21 1 -31 -8 -10 -8 -17 -1 -24 7 -7 16 -4 27 12 21 30 20 41 -4 67
-40 43 -105 9 -103 -53 1 -41 -12 -38 -20 4 -9 41 10 89 42 106 31 18 86 13
112 -11z m94 -242 c50 -25 80 -54 102 -95 18 -35 34 -107 24 -107 -4 0 -23 20
-43 44 -51 60 -115 90 -194 89 -34 -1 -72 -6 -84 -13 l-23 -12 24 42 c43 76
112 95 194 52z m-8 -123 c40 -22 107 -88 98 -97 -3 -3 -15 4 -28 15 -67 60
-199 64 -260 7 -27 -24 -85 -54 -107 -54 -25 0 57 107 100 130 61 33 138 32
197 -1z m-341 -233 c81 -85 105 -193 56 -250 -29 -35 -36 -41 -77 -71 -38 -29
-39 -29 -22 -5 78 109 78 194 2 306 -24 35 -33 74 -17 74 4 0 30 -24 58 -54z"/>
<path d="M4006 1934 c-30 -30 -9 -84 33 -84 22 0 51 30 51 53 0 21 -27 47 -50
47 -10 0 -26 -7 -34 -16z"/>
<path d="M4866 1874 c-31 -30 -9 -84 34 -84 24 0 50 26 50 50 0 24 -26 50 -50
50 -10 0 -26 -7 -34 -16z"/>
<path d="M3817 1570 c-14 -11 -27 -20 -30 -20 -3 0 -86 -50 -184 -111 -98 -61
-190 -117 -205 -125 -16 -8 -28 -18 -28 -23 0 -5 25 -24 55 -42 30 -18 55 -36
55 -39 0 -4 -11 -17 -25 -30 -31 -29 -32 -44 -2 -58 12 -6 47 -26 77 -43 113
-66 103 -64 122 -22 10 21 18 44 18 51 0 17 17 15 83 -7 32 -11 58 -19 58 -18
3 4 7 48 13 157 4 63 9 144 12 180 10 137 12 170 9 170 -1 0 -14 -9 -28 -20z"/>
<path d="M4856 1074 c-31 -30 -9 -84 34 -84 24 0 50 26 50 50 0 24 -26 50 -50
50 -10 0 -26 -7 -34 -16z"/>
<path d="M3996 1064 c-31 -30 -9 -84 34 -84 24 0 50 26 50 50 0 24 -26 50 -50
50 -10 0 -26 -7 -34 -16z"/>
</g>
</svg>
